<svg width="141" height="105" viewBox="0 0 141 105" version="1.1" xmlns="http://www.w3.org/2000/svg" xmlns:xlink="http://www.w3.org/1999/xlink">
<title>sass</title>
<desc>Created using Figma</desc>
<g id="Canvas" transform="translate(-553 -819)">
<g id="sass">
<g id="Vector">
<use xlink:href="#path0_fill" transform="translate(553.621 819)" fill="#828282"/>
</g>
</g>
</g>
<defs>
<path id="path0_fill" d="M 120.552 60.3512C 115.656 60.3772 111.416 61.5526 107.861 63.3049C 106.561 60.7099 105.245 58.4271 105.024 56.7299C 104.766 54.7482 104.467 53.5666 104.778 51.2065C 105.09 48.8456 106.455 45.5041 106.435 45.2534C 106.416 45.0027 106.129 43.8006 103.305 43.7801C 100.482 43.7596 98.0664 44.3232 97.7818 45.069C 97.4972 45.8147 96.9533 47.4929 96.616 49.2421C 96.1209 51.8032 90.9782 60.9345 88.0576 65.7123C 87.1023 63.848 86.2903 62.2037 86.1208 60.903C 85.8631 58.9213 85.5643 57.7397 85.8749 55.3788C 86.1871 53.0195 87.5524 49.6764 87.5327 49.4257C 87.5137 49.1751 87.2268 47.973 84.4024 47.9525C 81.5788 47.932 79.1635 48.4956 78.879 49.2413C 78.5944 49.987 78.2909 51.7299 77.7131 53.4144C 77.1345 55.1005 70.2978 70.3331 68.5069 74.2824C 67.5948 76.2941 66.8002 77.91 66.2398 79.0144C 66.2382 79.0113 66.2366 79.0081 66.2366 79.0081C 66.2366 79.0081 66.2019 79.0814 66.1428 79.2052C 65.6628 80.1448 65.3774 80.6651 65.3774 80.6651C 65.3774 80.6651 65.3806 80.6722 65.3861 80.684C 65.0053 81.3737 64.5978 82.0146 64.396 82.0146C 64.2549 82.0146 63.9719 80.1779 64.4575 77.657C 65.4752 72.3732 67.9188 64.1318 67.8944 63.848C 67.8818 63.7022 68.3484 62.2667 66.2989 61.5155C 64.3061 60.7856 63.5959 62.0027 63.4146 62.0066C 63.238 62.0106 63.1072 62.4362 63.1072 62.4362C 63.1072 62.4362 65.327 53.1685 58.8726 53.1685C 54.8366 53.1685 49.2454 57.5836 46.4903 61.5849C 44.7514 62.5332 41.0315 64.5638 37.0847 66.7323C 35.5688 67.5655 34.0222 68.4169 32.5552 69.2248C 32.4559 69.1137 32.3558 69.0033 32.2533 68.8938C 24.4265 60.5428 9.95697 54.6362 10.571 43.4096C 10.7941 39.3279 12.213 28.5814 38.3743 15.5457C 59.8043 4.86696 76.9595 7.80565 79.9242 14.3184C 84.1596 23.6224 70.755 40.9147 48.5005 43.4096C 40.021 44.3603 35.5562 41.074 34.4455 39.8498C 33.2765 38.561 33.1023 38.5034 32.6656 38.7446C 31.9546 39.1388 32.4047 40.2762 32.6656 40.9542C 33.3301 42.6836 36.0567 45.75 40.7052 47.2761C 44.7948 48.6178 54.7499 49.3556 66.7892 44.6985C 80.2734 39.4825 90.8032 24.9735 87.71 12.8451C 84.5656 0.510178 64.113 -3.54471 44.7561 3.3322C 33.2363 7.42492 20.765 13.8486 11.7984 22.235C 1.13696 32.2075 -0.563347 40.8872 0.13743 44.514C 2.6268 57.3999 20.3882 65.7919 27.5 72.0106C 27.1492 72.2045 26.8197 72.3866 26.5202 72.5521C 22.9548 74.3155 9.41542 81.4013 6.02821 88.8876C 2.18694 97.3796 6.63991 103.472 9.58805 104.293C 18.7218 106.835 28.0952 102.263 33.1322 94.7499C 38.1685 87.2385 37.5537 77.4568 35.2425 72.992C 35.2133 72.9368 35.1818 72.8824 35.1526 72.8272C 36.0733 72.2825 37.0121 71.7276 37.9431 71.1813C 39.7577 70.1156 41.5392 69.1224 43.085 68.2805C 42.2203 70.6508 41.5865 73.491 41.257 77.5947C 40.8699 82.415 42.8454 88.6455 45.4301 91.0971C 46.5684 92.1762 47.9376 92.2014 48.8055 92.2014C 51.8136 92.2014 53.1867 89.6987 54.6979 86.7387C 56.5519 83.1095 58.1962 78.8828 58.1962 78.8828C 58.1962 78.8828 56.1317 90.2978 61.7561 90.2978C 63.8056 90.2978 65.8661 87.6405 66.7845 86.2854C 66.7868 86.3012 66.7884 86.3083 66.7884 86.3083C 66.7884 86.3083 66.842 86.22 66.9461 86.0427C 67.1589 85.7179 67.2795 85.5106 67.2795 85.5106C 67.2795 85.5106 67.2835 85.4893 67.2906 85.4515C 68.1143 84.0223 69.9407 80.7612 72.6808 75.3836C 76.2209 68.4373 79.616 59.7332 79.616 59.7332C 79.616 59.7332 79.9321 61.8608 80.9663 65.3796C 81.5749 67.4496 82.8677 69.738 83.8885 71.9326C 83.0671 73.0716 82.5618 73.7259 82.5618 73.7259C 82.5618 73.7259 82.5665 73.7385 82.576 73.7598C 81.9201 74.6308 81.1839 75.5712 80.4145 76.488C 77.6209 79.8153 74.2928 83.6148 73.8474 84.7121C 73.3224 86.0048 73.4462 86.9547 74.4607 87.7193C 75.2017 88.2774 76.5212 88.3641 77.8976 88.2711C 80.4082 88.1024 82.1748 87.4797 83.0458 87.1005C 84.4048 86.6205 85.9868 85.8653 87.472 84.7735C 90.2128 82.7579 91.865 79.876 91.7066 76.0576C 91.6191 73.9537 90.9475 71.8687 90.0985 69.8996C 90.3468 69.5417 90.5967 69.1807 90.8466 68.8157C 95.1671 62.4993 98.5181 55.5585 98.5181 55.5585C 98.5181 55.5585 98.8342 57.6861 99.8692 61.2057C 100.393 62.9864 101.425 64.9295 102.354 66.8348C 98.2918 70.1361 95.7717 73.9718 94.8967 76.488C 93.2792 81.1412 94.5467 83.2498 96.9226 83.7299C 97.9986 83.9474 99.5192 83.454 100.662 82.97C 102.085 82.4986 103.796 81.7127 105.392 80.5389C 108.133 78.5233 110.767 75.7021 110.609 71.8845C 110.536 70.1463 110.065 68.4208 109.425 66.7638C 112.869 65.33 117.327 64.5322 123.006 65.1952C 135.189 66.618 137.578 74.2248 137.121 77.4087C 136.665 80.5917 134.109 82.3425 133.255 82.8714C 132.4 83.3996 132.14 83.5825 132.212 83.9758C 132.316 84.5473 132.711 84.5244 133.439 84.4023C 134.442 84.2328 139.837 81.8128 140.068 75.9354C 140.363 68.4799 133.215 60.2842 120.552 60.3512ZM 26.6471 92.0099C 22.6119 96.4124 16.9742 98.0757 14.5566 96.6749C 11.9458 95.1606 12.98 88.6794 17.9319 84.0089C 20.9502 81.1617 24.8467 78.5399 27.4314 76.9247C 28.0195 76.5708 28.8842 76.0505 29.9342 75.4215C 30.1084 75.3221 30.207 75.2677 30.207 75.2677L 30.203 75.2607C 30.4056 75.1393 30.6137 75.0147 30.8281 74.8862C 32.6301 81.5353 30.8833 87.3898 26.6471 92.0099ZM 56.0458 72.0248C 54.6403 75.4514 51.6985 84.2178 49.9083 83.7472C 48.3712 83.3444 47.4355 76.6803 49.6009 70.1227C 50.6911 66.8214 53.0196 62.8769 54.3881 61.3452C 56.5905 58.8819 59.016 58.0763 59.6049 59.075C 60.3561 60.3473 56.9271 69.8767 56.0458 72.0248ZM 80.3341 83.614C 79.7382 83.9254 79.1919 84.1216 78.9381 83.9703C 78.7521 83.8584 79.184 83.4484 79.184 83.4484C 79.184 83.4484 82.2221 80.1803 83.4186 78.692C 84.1147 77.8265 84.9211 76.8001 85.8008 75.6508C 85.8079 75.7659 85.8119 75.8794 85.8119 75.9922C 85.8032 79.9075 82.0203 82.5506 80.3341 83.614ZM 99.0446 79.3486C 98.6008 79.0325 98.6741 78.0101 100.136 74.8255C 100.71 73.5753 102.02 71.4706 104.295 69.459C 104.559 70.2866 104.719 71.0796 104.715 71.8175C 104.686 76.7442 101.171 78.584 99.0446 79.3486Z"/>
</defs>
</svg>
