<svg width="190" height="190" viewBox="0 0 190 190" version="1.1" xmlns="http://www.w3.org/2000/svg" xmlns:xlink="http://www.w3.org/1999/xlink">
<title>Group</title>
<desc>Created using Figma</desc>
<g id="Canvas" transform="translate(-591 -728)">
<g id="Group">
<g id="Rectangle 12">
<use xlink:href="#path0_fill" transform="translate(591 728)" fill="#FFFFFF"/>
</g>
<g id="scketch">
<g id="Sketch">
<g id="&#60;Group&#62;">
<g id="Vector">
<use xlink:href="#path1_stroke" transform="translate(629 805.999)" fill="#828282"/>
</g>
<g id="Vector">
<use xlink:href="#path2_stroke" transform="translate(629 773.501)" fill="#828282"/>
</g>
<g id="Vector">
<use xlink:href="#path3_stroke" transform="translate(651.5 771)" fill="#828282"/>
</g>
<g id="Vector">
<use xlink:href="#path4_stroke" transform="translate(649 771)" fill="#828282"/>
</g>
</g>
</g>
</g>
</g>
</g>
<defs>
<path id="path0_fill" d="M 0 0L 190 0L 190 190L 0 190L 0 0Z"/>
<path id="path1_stroke" d="M 0 0L 0 -3C -1.16022 -3 -2.21643 -2.331 -2.71226 -1.28206C -3.20808 -0.233119 -3.05462 1.00769 -2.31818 1.90422L 0 0ZM 114.999 0L 117.317 1.90422C 118.053 1.00769 118.207 -0.233119 117.711 -1.28206C 117.215 -2.331 116.159 -3 114.999 -3L 114.999 0ZM 57.4994 69.9993L 55.1813 71.9035C 55.7511 72.5972 56.6017 72.9993 57.4994 72.9993C 58.3972 72.9993 59.2478 72.5972 59.8176 71.9035L 57.4994 69.9993ZM 0 3L 114.999 3L 114.999 -3L 0 -3L 0 3ZM 112.681 -1.90422L 55.1813 68.0951L 59.8176 71.9035L 117.317 1.90422L 112.681 -1.90422ZM 59.8176 68.0951L 2.31818 -1.90422L -2.31818 1.90422L 55.1813 71.9035L 59.8176 68.0951Z"/>
<path id="path2_stroke" d="M -2.46658 30.792C -3.40967 32.1543 -3.06988 34.0231 -1.70763 34.9662C -0.34538 35.9093 1.52348 35.5695 2.46658 34.2073L -2.46658 30.792ZM 22.4998 0L 25.4909 0.23009C 25.5949 -1.12085 24.7804 -2.37377 23.5035 -2.8271C 22.2267 -3.28044 20.8044 -2.82165 20.0332 -1.70763L 22.4998 0ZM 19.9998 32.4996L 17.0086 32.2695C 16.9647 32.8403 17.085 33.4117 17.3554 33.9163L 19.9998 32.4996ZM 57.4994 102.499L 54.855 103.916C 55.3773 104.89 56.3935 105.499 57.4994 105.499C 58.6054 105.499 59.6216 104.89 60.1439 103.916L 57.4994 102.499ZM 94.9991 32.4996L 97.6435 33.9163C 97.9138 33.4117 98.0341 32.8403 97.9902 32.2695L 94.9991 32.4996ZM 92.4991 0L 94.9657 -1.70763C 94.1944 -2.82165 92.7722 -3.28044 91.4954 -2.8271C 90.2185 -2.37377 89.404 -1.12085 89.5079 0.23009L 92.4991 0ZM 112.532 34.2073C 113.475 35.5695 115.344 35.9093 116.707 34.9662C 118.069 34.0231 118.409 32.1543 117.465 30.792L 112.532 34.2073ZM 2.46658 34.2073L 24.9664 1.70763L 20.0332 -1.70763L -2.46658 30.792L 2.46658 34.2073ZM 19.5086 -0.23009L 17.0086 32.2695L 22.991 32.7297L 25.4909 0.23009L 19.5086 -0.23009ZM 17.3554 33.9163L 54.855 103.916L 60.1439 101.082L 22.6442 31.083L 17.3554 33.9163ZM 60.1439 103.916L 97.6435 33.9163L 92.3546 31.083L 54.855 101.082L 60.1439 103.916ZM 97.9902 32.2695L 95.4903 -0.23009L 89.5079 0.23009L 92.0079 32.7297L 97.9902 32.2695ZM 90.0325 1.70763L 112.532 34.2073L 117.465 30.792L 94.9657 -1.70763L 90.0325 1.70763Z"/>
<path id="path3_stroke" d="M -0.213741 -0.492397C -1.86639 -0.374351 -3.11042 1.06108 -2.99238 2.71372C -2.87433 4.36636 -1.4389 5.6104 0.213741 5.49235L -0.213741 -0.492397ZM 34.9996 0L 35.2134 -2.99238C 35.0711 -3.00254 34.9282 -3.00254 34.7859 -2.99238L 34.9996 0ZM 69.7856 5.49235C 71.4382 5.6104 72.8736 4.36636 72.9917 2.71372C 73.1097 1.06108 71.8657 -0.374351 70.213 -0.492397L 69.7856 5.49235ZM 0.213741 5.49235L 35.2134 2.99238L 34.7859 -2.99238L -0.213741 -0.492397L 0.213741 5.49235ZM 34.7859 2.99238L 69.7856 5.49235L 70.213 -0.492397L 35.2134 -2.99238L 34.7859 2.99238Z"/>
<path id="path4_stroke" d="M -2.04695 32.8065C -3.25821 33.937 -3.32367 35.8354 -2.19317 37.0466C -1.06266 38.2579 0.835702 38.3233 2.04695 37.1928L -2.04695 32.8065ZM 37.4996 0L 39.5466 -2.19317C 38.394 -3.26894 36.6053 -3.26894 35.4527 -2.19317L 37.4996 0ZM 72.9523 37.1928C 74.1636 38.3233 76.062 38.2579 77.1925 37.0466C 78.323 35.8354 78.2575 33.937 77.0462 32.8065L 72.9523 37.1928ZM 2.04695 37.1928L 39.5466 2.19317L 35.4527 -2.19317L -2.04695 32.8065L 2.04695 37.1928ZM 35.4527 2.19317L 72.9523 37.1928L 77.0462 32.8065L 39.5466 -2.19317L 35.4527 2.19317Z"/>
</defs>
</svg>
