<svg width="108" height="105" viewBox="0 0 108 105" version="1.1" xmlns="http://www.w3.org/2000/svg" xmlns:xlink="http://www.w3.org/1999/xlink">
<title>github</title>
<desc>Created using Figma</desc>
<g id="Canvas" transform="translate(-256 -819)">
<g id="github">
<g id="Group">
<g id="Vector">
<use xlink:href="#path0_fill" transform="translate(256.241 819)" fill="#828282"/>
</g>
</g>
</g>
</g>
<defs>
<path id="path0_fill" d="M 100.414 26.8031C 95.6015 18.5575 89.0738 12.0296 80.829 7.21764C 72.583 2.40547 63.5808 -5.61747e-08 53.816 -5.61747e-08C 44.0525 -5.61747e-08 35.0474 2.40621 26.8031 7.21764C 18.5576 12.0293 12.0301 18.5575 7.21765 26.8031C 2.40597 35.0483 0 44.0522 0 53.8145C 0 65.5412 3.42132 76.0861 10.2657 85.452C 17.1093 94.8187 25.9502 101.3 36.7877 104.897C 38.0493 105.131 38.9831 104.966 39.5903 104.407C 40.1978 103.847 40.5011 103.145 40.5011 102.306C 40.5011 102.165 40.4891 100.905 40.4658 98.5217C 40.4417 96.1388 40.4304 94.06 40.4304 92.2863L 38.8187 92.5651C 37.7911 92.7534 36.4947 92.8331 34.9296 92.8105C 33.3652 92.7887 31.7412 92.6248 30.0597 92.3199C 28.3775 92.0178 26.8129 91.3171 25.3646 90.2193C 23.9171 89.1215 22.8894 87.6845 22.282 85.9105L 21.5813 84.298C 21.1142 83.2245 20.3789 82.0319 19.3744 80.7248C 18.3698 79.4164 17.354 78.5294 16.3264 78.0623L 15.8357 77.7111C 15.5088 77.4777 15.2055 77.1962 14.9249 76.8695C 14.6447 76.5429 14.4348 76.216 14.2947 75.8886C 14.1543 75.5609 14.2706 75.2922 14.6449 75.0813C 15.0192 74.8705 15.6956 74.7682 16.6771 74.7682L 18.078 74.9775C 19.0124 75.1648 20.1681 75.7241 21.5467 76.659C 22.9245 77.5931 24.0572 78.8075 24.9449 80.3017C 26.0199 82.2175 27.3151 83.6773 28.834 84.6819C 30.3518 85.6864 31.8821 86.1878 33.4234 86.1878C 34.9647 86.1878 36.2959 86.071 37.4175 85.8386C 38.5379 85.6049 39.5891 85.2537 40.5706 84.7869C 40.991 81.6557 42.1357 79.2502 44.0037 77.5688C 41.3412 77.289 38.9475 76.8676 36.8214 76.3073C 34.6964 75.7462 32.5005 74.8357 30.2352 73.5732C 27.9687 72.3124 26.0884 70.7468 24.594 68.879C 23.0993 67.0103 21.8726 64.557 20.9157 61.5213C 19.9583 58.4843 19.4794 54.981 19.4794 51.0104C 19.4794 45.3569 21.3251 40.546 25.0156 36.5749C 23.2868 32.3245 23.45 27.5597 25.5057 22.281C 26.8605 21.8601 28.8696 22.1759 31.5321 23.2266C 34.195 24.2778 36.1447 25.1783 37.3832 25.9249C 38.6216 26.6713 39.6139 27.3037 40.3615 27.8167C 44.7068 26.6025 49.1911 25.9953 53.8155 25.9953C 58.44 25.9953 62.9252 26.6025 67.2709 27.8167L 69.9335 26.1357C 71.7544 25.0141 73.9046 23.9862 76.3791 23.0519C 78.855 22.118 80.7482 21.8608 82.0569 22.2817C 84.1583 27.5607 84.3455 32.3253 82.6162 36.5756C 86.3065 40.5467 88.1529 45.3589 88.1529 51.0112C 88.1529 54.9817 87.6723 58.4961 86.7164 61.5564C 85.7592 64.6171 84.522 67.068 83.0042 68.9141C 81.4848 70.76 79.5925 72.3134 77.3272 73.5739C 75.0613 74.8354 72.8647 75.746 70.7398 76.307C 68.6139 76.8681 66.2202 77.2897 63.5577 77.57C 65.986 79.6714 67.2004 82.9884 67.2004 87.5195L 67.2004 102.304C 67.2004 103.143 67.4925 103.845 68.0771 104.405C 68.661 104.964 69.5831 105.129 70.8446 104.895C 81.6836 101.298 90.5245 94.8167 97.3679 85.4501C 104.211 76.0842 107.633 65.5392 107.633 53.8125C 107.631 44.0515 105.223 35.0483 100.414 26.8031Z"/>
</defs>
</svg>
