<svg width="190" height="190" viewBox="0 0 190 190" version="1.1" xmlns="http://www.w3.org/2000/svg" xmlns:xlink="http://www.w3.org/1999/xlink">
<title>Group</title>
<desc>Created using Figma</desc>
<g id="Canvas" transform="translate(-591 -518)">
<g id="Group">
<g id="Rectangle 12">
<use xlink:href="#path0_fill" transform="translate(591 518)" fill="#FFFFFF"/>
</g>
<g id="ruby">
<g id="Group">
<g id="Vector">
<use xlink:href="#path1_fill" transform="translate(633 561)" fill="#828282"/>
</g>
</g>
</g>
</g>
</g>
<defs>
<path id="path0_fill" d="M 0 0L 190 0L 190 190L 0 190L 0 0Z"/>
<path id="path1_fill" d="M 0.117939 92.8105L 3.37922 61.1924L 9.16925 66.0154L 0 94.5005L 0.117939 92.8105ZM 10.8585 70.1214L 25.2237 98.7243L 1.08563 101.739L 10.8585 70.1214ZM 26.9129 101.985L 26.9129 102.103L 26.9129 101.985L 27.3942 101.867L 27.3942 101.985L 95.5904 104.637L 2.77487 105L 26.9129 101.985ZM 52.7409 25.1058L 30.2921 50.0841L 10.3772 62.6377L 4.70513 57.8146L 12.6708 42.8451L 31.6232 21.717L 49.7251 9.04619L 58.0548 11.3449L 52.7409 25.1058ZM 25.1013 92.0838L 11.8262 65.6521L 30.4145 53.8259L 25.1013 92.0838ZM 72.2969 62.1557L 27.5173 97.5163L 33.5534 54.072L 72.2969 62.1557ZM 74.8308 64.5716L 102.711 102.348L 30.5324 99.5682L 74.8308 64.5716ZM 54.6756 27.9935L 71.3292 59.5039L 33.793 51.1741L 54.6756 27.9935ZM 84.2454 5.36532e-07L 59.2577 8.08363L 54.7935 6.87566L 84.2454 5.36532e-07ZM 56.3656 25.1058L 61.9153 10.9816L 92.8162 15.9321L 56.3656 25.1058ZM 57.8138 27.9935L 97.2796 17.376L 74.5905 59.739L 57.8138 27.9935ZM 101.262 14.596L 68.191 8.81105L 94.6227 0.235879L 101.262 14.596ZM 105.486 101.867L 76.7611 62.8824L 101.626 16.2859L 105.486 101.867Z"/>
</defs>
</svg>
