<svg width="190" height="190" viewBox="0 0 190 190" version="1.1" xmlns="http://www.w3.org/2000/svg" xmlns:xlink="http://www.w3.org/1999/xlink">
<title>Group</title>
<desc>Created using Figma</desc>
<g id="Canvas" transform="translate(-801 -728)">
<g id="Group">
<g id="Rectangle 12">
<use xlink:href="#path0_fill" transform="translate(801 728)" fill="#FFFFFF"/>
</g>
<g id="react">
<g id="Page 1">
<g id="React.js logo">
<g id="Oval">
<use xlink:href="#path1_fill" transform="translate(885.468 812.862)" fill="#828282"/>
</g>
<g id="Shape">
<use xlink:href="#path2_fill" transform="translate(837 799.453)" fill="#828282"/>
</g>
<g id="Shape">
<use xlink:href="#path3_fill" transform="translate(859.8 771)" fill="#828282"/>
</g>
<g id="Shape">
<use xlink:href="#path4_fill" transform="translate(859.828 771.114)" fill="#828282"/>
</g>
</g>
</g>
</g>
</g>
</g>
<defs>
<path id="path0_fill" d="M 0 0L 190 0L 190 190L 0 190L 0 0Z"/>
<path id="path1_fill" d="M 10.5384 21.0768C 16.3586 21.0768 21.0768 16.3586 21.0768 10.5384C 21.0768 4.71821 16.3586 0 10.5384 0C 4.71821 0 0 4.71821 0 10.5384C 0 16.3586 4.71821 21.0768 10.5384 21.0768Z"/>
<path id="path2_fill" fill-rule="evenodd" d="M 59.008 5.0416C 72.6241 5.0416 85.5585 6.96126 95.3918 10.3465C 106.313 14.1061 112.974 19.6647 112.974 23.9476C 112.974 28.5097 105.78 34.4324 94.0984 38.3029C 84.7985 41.3842 72.3558 43.0636 59.008 43.0636C 44.9859 43.0636 32.4028 41.4169 23.2108 38.2749C 17.4562 36.308 12.7038 33.7518 9.44645 30.9623C 6.51938 28.4556 5.04161 25.9669 5.04161 23.9476C 5.04161 19.6503 11.4483 14.1689 22.1338 10.4435C 31.9713 7.01393 45.2223 5.0416 59.008 5.0416ZM 59.008 1.2565e-06C 44.6867 1.2565e-06 30.8807 2.05495 20.4741 5.68289C 7.97945 10.0391 4.40738e-09 16.866 4.40738e-09 23.9476C 4.40738e-09 31.2616 8.56608 38.5973 21.5802 43.0456C 31.3624 46.3892 44.4745 48.1052 59.008 48.1052C 72.8591 48.1052 85.8253 46.3551 95.6841 43.0886C 109.213 38.606 118.016 31.3593 118.016 23.9476C 118.016 16.8404 109.779 9.96748 97.0329 5.57948C 86.6389 2.00121 73.155 1.2565e-06 59.008 1.2565e-06Z"/>
<path id="path3_fill" fill-rule="evenodd" d="M 19.7386 43.0083C 26.5407 31.2133 34.6653 20.9676 42.5103 14.1403C 51.2231 6.55805 59.3663 3.56414 63.0764 5.70368C 67.0285 7.98272 68.5652 17.174 66.0822 29.2268C 64.1053 38.8224 59.3442 50.4403 52.6761 62.003C 45.671 74.1501 37.9585 84.2276 30.6445 90.6208C 26.0657 94.6233 21.4772 97.4631 17.4334 98.8912C 13.7997 100.175 10.9055 100.211 9.15611 99.2026C 5.43353 97.0557 3.88588 88.7675 5.99684 77.6499C 7.94017 67.415 12.8513 54.9509 19.7386 43.0083L 19.7386 43.0083ZM 15.3712 40.4896C 8.21638 52.8963 3.09949 65.8824 1.04373 76.7094C -1.42463 89.7094 0.502936 100.032 6.63746 103.57C 12.9736 107.224 23.6077 103.468 33.9625 94.4166C 41.7461 87.6129 49.783 77.1117 57.0435 64.5216C 63.963 52.5229 68.9245 40.4164 71.0201 30.2441C 73.8959 16.2848 72.0157 5.03882 65.595 1.33624C 59.4383 -2.21416 49.3696 1.48767 39.2006 10.3372C 30.9083 17.5538 22.4385 28.2347 15.3712 40.4896L 15.3712 40.4896Z"/>
<path id="path4_fill" fill-rule="evenodd" d="M 19.7271 61.9158C 12.9053 50.1322 8.08634 37.9764 6.08941 27.7702C 3.87154 16.4351 5.34459 7.88488 9.05121 5.73915C 12.9995 3.45336 21.73 6.71234 30.9319 14.8829C 38.258 21.3876 45.9453 31.3144 52.6329 42.8662C 59.6583 55.0015 64.5374 66.7163 66.4237 76.2458C 67.6046 82.2115 67.7733 87.605 66.9911 91.8217C 66.2882 95.6107 64.8747 98.1364 63.127 99.1482C 59.4079 101.301 51.4543 98.5028 42.8766 91.1216C 34.9801 84.3265 26.6343 73.8469 19.7271 61.9158L 19.7271 61.9158ZM 15.3639 64.4418C 22.5395 76.8363 31.2348 87.7549 39.5882 94.9431C 49.618 103.574 59.5242 107.059 65.6529 103.511C 71.9829 99.8469 74.04 88.7583 71.3694 75.2668C 69.362 65.1254 64.2776 52.9181 56.9961 40.3403C 50.0564 28.353 42.0456 18.0086 34.2793 11.1129C 23.6219 1.64997 12.9397 -2.33753 6.52529 1.37595C 0.374442 4.93664 -1.44693 15.5087 1.14162 28.7382C 3.25242 39.5264 8.27613 52.1986 15.3639 64.4417L 15.3639 64.4418Z"/>
</defs>
</svg>
