<svg width="94" height="105" viewBox="0 0 94 105" version="1.1" xmlns="http://www.w3.org/2000/svg" xmlns:xlink="http://www.w3.org/1999/xlink">
<title>css</title>
<desc>Created using Figma</desc>
<g id="Canvas" transform="translate(-133 -600)">
<g id="css">
<g id="Vector">
<use xlink:href="#path0_fill" transform="translate(133.87 600)" fill="#828282"/>
</g>
</g>
</g>
<defs>
<path id="path0_fill" d="M 0 3.31119e-07L 8.42619 94.5036L 46.2381 105L 84.1527 94.4884L 92.5876 3.31119e-07L 0 3.31119e-07ZM 74.2487 30.198L 46.3712 42.591L 73.1963 42.591L 70.0758 78.3565L 46.3712 84.9418L 46.3712 84.9324L 46.2793 84.9534L 22.4959 78.3688L 20.8727 60.1811L 32.5084 60.1811L 33.3532 69.4131L 46.2822 72.8859L 46.3712 72.8721L 46.3712 72.8823L 59.2394 69.2945L 60.5262 54.1637L 46.3712 54.1637L 20.3013 54.1637L 19.2864 42.5902L 46.3712 30.998L 48.2396 30.198L 46.3712 30.198L 18.2564 30.198L 17.2285 18.6245L 46.2533 18.6245L 46.3712 18.6245L 75.2448 18.6245L 74.2487 30.198Z"/>
</defs>
</svg>
