<svg width="190" height="190" viewBox="0 0 190 190" version="1.1" xmlns="http://www.w3.org/2000/svg" xmlns:xlink="http://www.w3.org/1999/xlink">
<title>Group</title>
<desc>Created using Figma</desc>
<g id="Canvas" transform="translate(-801 -518)">
<g id="Group">
<g id="Rectangle 12">
<use xlink:href="#path0_fill" transform="translate(801 518)" fill="#FFFFFF"/>
</g>
<g id="js">
<g id="Group">
<g id="Vector">
<use xlink:href="#path1_fill" transform="translate(825 562.226)" fill="#828282"/>
</g>
<g id="Vector">
<use xlink:href="#path2_fill" transform="translate(896.867 561)" fill="#828282"/>
</g>
</g>
</g>
</g>
</g>
<defs>
<path id="path0_fill" d="M 0 0L 190 0L 190 190L 0 190L 0 0Z"/>
<path id="path1_fill" d="M 40.4211 75.3685L 39.8979 77.0055C 39.3727 79.1909 38.4939 80.9231 37.2741 82.1963C 35.6976 83.8333 33.1586 84.6513 29.6608 84.6513C 27.036 84.6513 24.8468 84.0167 23.0969 82.7406C 21.3452 81.4695 19.5086 79.1909 17.5862 75.9128C 16.8838 74.6417 16.4907 74.0031 16.4059 74.0031C 16.3143 74.0031 13.5585 75.7354 8.13644 79.1909L -1.32327e-06 84.3796L 0.785316 85.4723C 4.46233 93.484 10.3228 98.8532 18.3735 101.584C 27.2972 104.678 35.9588 104.493 44.3592 101.038C 53.6327 97.0308 58.968 89.1153 60.3691 77.2802C 60.5425 76.007 60.6321 62.8065 60.6321 37.6847L 60.6321 -3.18166e-06L 50.3951 -3.18166e-06L 40.4211 -3.18166e-06L 40.4211 37.6847L 40.4211 75.3685Z"/>
<path id="path2_fill" d="M 13.1772 8.59838C 8.27738 13.6959 5.82894 20.1598 5.82894 27.984C 5.82894 39.4542 10.9012 48.3761 21.0505 54.7468C 23.4989 56.3858 27.6992 58.4809 33.6512 61.0282C 40.9994 64.3042 45.5484 66.9467 47.3002 68.9476C 50.2728 72.2237 50.8837 75.7744 49.1368 79.5958C 48.6107 80.5101 47.9959 81.3291 47.3002 82.0538C 44.6745 84.7856 40.9994 86.1509 36.275 86.1509C 28.4026 86.1509 22.1008 82.51 17.3764 75.2281C 16.674 73.9559 16.2818 73.3164 16.196 73.3164C 16.1064 73.3164 13.4383 74.9123 8.18873 78.0961C 2.93918 81.284 0.22286 82.9671 0.0532715 83.1475C -0.123063 83.33 0.138067 83.9655 0.840513 85.0582C 6.96306 95.9811 16.674 102.353 29.9751 104.173C 34.3478 104.898 38.7225 104.898 43.099 104.173C 51.3202 103.082 57.7983 100.166 62.5218 95.4357C 67.594 90.3402 70.133 83.6026 70.133 75.2281C 70.133 70.1346 69.1704 65.5804 67.2481 61.5735C 66.1949 59.0263 64.6224 56.6585 62.5218 54.4731C 58.494 50.2888 51.4079 45.9201 41.2634 41.3659C 34.0848 38.2733 29.7121 35.8162 28.1366 33.9938C 26.3877 31.9929 25.6005 29.626 25.7759 26.8943C 25.9474 24.709 26.6489 22.8925 27.8755 21.4339C 29.7978 19.431 32.4255 18.4285 35.7498 18.4285C 39.4239 18.4285 42.3975 19.7047 44.6754 22.2529C 45.8963 23.3436 46.8146 24.4363 47.4312 25.53C 48.0431 26.6217 48.4363 27.169 48.6116 27.169C 48.9614 26.9896 51.6315 25.2152 56.617 21.8439C 61.6054 18.4786 64.0991 16.7494 64.0991 16.6542C 64.0991 16.5649 63.573 15.6096 62.5237 13.7881C 60.0724 10.1472 57.3609 7.32826 54.3882 5.32333C 50.188 2.22973 45.0242 0.502484 38.9026 0.13458C 36.6248 -0.0448608 34.4403 -0.0448608 32.3388 0.13458C 24.4625 0.678917 18.0731 3.50286 13.1772 8.59838Z"/>
</defs>
</svg>
