<svg width="190" height="190" viewBox="0 0 190 190" version="1.1" xmlns="http://www.w3.org/2000/svg" xmlns:xlink="http://www.w3.org/1999/xlink">
<title>Group</title>
<desc>Created using Figma</desc>
<g id="Canvas" transform="translate(39 -728)">
<g id="Group">
<g id="Rectangle 12">
<use xlink:href="#path0_fill" transform="translate(-39 728)" fill="#FFFFFF"/>
</g>
<g id="bootstrap-4">
<g id="Vector">
<use xlink:href="#path1_fill" transform="translate(4 771)" fill="#828282"/>
</g>
<g id="Vector">
<use xlink:href="#path2_fill" transform="translate(33.562 791.712)" fill="#FFFFFF"/>
</g>
</g>
</g>
</g>
<defs>
<path id="path0_fill" d="M 0 0L 190 0L 190 190L 0 190L 0 0Z"/>
<path id="path1_fill" d="M 0 91.4612C 0 98.9391 6.0617 105 13.5388 105L 91.4607 105C 98.9391 105 105 98.9383 105 91.4612L 105 13.5393C 105 6.06088 98.9383 0 91.4612 0L 13.5393 0C 6.06088 0 0 6.0617 0 13.5388L 0 91.4607L 0 91.4612Z"/>
<path id="path2_fill" d="M 13.9794 25.7324L 13.9794 10.863L 27.0679 10.863C 28.3147 10.863 29.5165 10.9668 30.674 11.1747C 31.8314 11.3823 32.8556 11.753 33.746 12.2875C 34.6361 12.8219 35.3485 13.5639 35.883 14.5134C 36.417 15.4633 36.6844 16.6803 36.6844 18.1638C 36.6844 20.8351 35.883 22.7645 34.2801 23.9515C 32.6776 25.1389 30.6297 25.7324 28.1363 25.7324L 13.9794 25.7324ZM -1.2517e-06 2.91434e-15L -1.2517e-06 63.5743L 30.8077 63.5743C 33.657 63.5743 36.4322 63.2183 39.133 62.5059C 41.8339 61.7934 44.2378 60.6954 46.3452 59.2115C 48.4522 57.7275 50.1293 55.8129 51.3758 53.4685C 52.6227 51.1236 53.2457 48.3485 53.2457 45.1431C 53.2457 41.1658 52.281 37.7677 50.352 34.9482C 48.4227 32.1284 45.4991 30.1547 41.5813 29.0268C 44.4306 27.6618 46.5827 25.9104 48.0371 23.7735C 49.4911 21.6366 50.2183 18.9657 50.2183 15.7599C 50.2183 12.792 49.7286 10.299 48.7491 8.28066C 47.7697 6.26269 46.3895 4.64503 44.6086 3.42809C 42.8281 2.21116 40.6912 1.33547 38.1979 0.801446C 35.7049 0.267012 32.9446 2.91434e-15 29.9172 2.91434e-15L -1.2517e-06 2.91434e-15ZM 13.9794 52.7113L 13.9794 35.2595L 29.2048 35.2595C 32.2322 35.2595 34.666 35.9568 36.5064 37.3522C 38.3463 38.7471 39.2667 41.0768 39.2667 44.3416C 39.2667 46.004 38.9846 47.369 38.4206 48.4375C 37.8566 49.5059 37.0999 50.3521 36.15 50.9751C 35.2005 51.5986 34.1021 52.0436 32.8556 52.311C 31.6087 52.5776 30.3032 52.7113 28.9378 52.7113L 13.9794 52.7113Z"/>
</defs>
</svg>
