<svg width="149" height="105" viewBox="0 0 149 105" version="1.1" xmlns="http://www.w3.org/2000/svg" xmlns:xlink="http://www.w3.org/1999/xlink">
<title>js</title>
<desc>Created using Figma</desc>
<g id="Canvas" transform="translate(-306 -600)">
<g id="js">
<g id="Group">
<g id="Vector">
<use xlink:href="#path0_fill" transform="translate(306.565 601.226)" fill="#828282"/>
</g>
<g id="Vector">
<use xlink:href="#path1_fill" transform="translate(381.333 600)" fill="#828282"/>
</g>
</g>
</g>
</g>
<defs>
<path id="path0_fill" d="M 42.0525 75.3685L 41.5082 77.0055C 40.9618 79.1909 40.0476 80.9231 38.7784 82.1963C 37.1384 83.8333 34.4969 84.6513 30.8579 84.6513C 28.1272 84.6513 25.8496 84.0167 24.0291 82.7406C 22.2067 81.4695 20.296 79.1909 18.296 75.9128C 17.5652 74.6417 17.1562 74.0031 17.068 74.0031C 16.9728 74.0031 14.1057 75.7354 8.46483 79.1909L -1.37668e-06 84.3796L 0.817012 85.4723C 4.64243 93.484 10.7394 98.8532 19.115 101.584C 28.3989 104.678 37.4101 104.493 46.1496 101.038C 55.7973 97.0308 61.348 89.1153 62.8056 77.2802C 62.986 76.007 63.0792 62.8065 63.0792 37.6847L 63.0792 -3.18166e-06L 52.429 -3.18166e-06L 42.0525 -3.18166e-06L 42.0525 37.6847L 42.0525 75.3685Z"/>
<path id="path1_fill" d="M 13.709 8.59838C 8.61146 13.6959 6.06419 20.1598 6.06419 27.984C 6.06419 39.4542 11.3412 48.3761 21.9001 54.7467C 24.4474 56.3858 28.8171 58.4809 35.0093 61.0282C 42.6541 64.3042 47.3867 66.9467 49.2092 68.9476C 52.3018 72.2237 52.9374 75.7744 51.1199 79.5958C 50.5726 80.51 49.933 81.3291 49.2092 82.0538C 46.4775 84.7856 42.6541 86.1509 37.739 86.1509C 29.5489 86.1509 22.9928 82.51 18.0777 75.2281C 17.3469 73.9559 16.9389 73.3164 16.8497 73.3164C 16.7565 73.3164 13.9807 74.9123 8.51923 78.0961C 3.05781 81.284 0.231855 82.9671 0.0554215 83.1475C -0.128029 83.33 0.14364 83.9655 0.874436 85.0582C 7.24409 95.981 17.3469 102.353 31.1849 104.173C 35.7341 104.898 40.2853 104.898 44.8385 104.173C 53.3915 103.082 60.1311 100.166 65.0451 95.4357C 70.3221 90.3402 72.9636 83.6026 72.9636 75.2281C 72.9636 70.1346 71.9621 65.5804 69.9622 61.5735C 68.8665 59.0263 67.2305 56.6585 65.0451 54.4731C 60.8548 50.2888 53.4827 45.9201 42.9288 41.3659C 35.4604 38.2733 30.9113 35.8162 29.2722 33.9938C 27.4528 31.9929 26.6337 29.626 26.8162 26.8943C 26.9946 24.709 27.7244 22.8925 29.0006 21.4339C 31.0005 19.431 33.7342 18.4285 37.1927 18.4285C 41.0151 18.4285 44.1087 19.7047 46.4785 22.2529C 47.7486 23.3436 48.704 24.4363 49.3456 25.53C 49.9821 26.6217 50.3911 27.169 50.5736 27.169C 50.9375 26.9896 53.7153 25.2152 58.9021 21.8439C 64.0918 18.4786 66.6862 16.7494 66.6862 16.6542C 66.6862 16.5649 66.1388 15.6096 65.0471 13.7881C 62.4969 10.1472 59.6759 7.32826 56.5833 5.32333C 52.2136 2.22973 46.8414 0.502484 40.4728 0.13458C 38.1029 -0.0448608 35.8304 -0.0448608 33.644 0.13458C 25.4498 0.678917 18.8025 3.50286 13.709 8.59838Z"/>
</defs>
</svg>
