<svg width="89" height="105" viewBox="0 0 89 105" version="1.1" xmlns="http://www.w3.org/2000/svg" xmlns:xlink="http://www.w3.org/1999/xlink">
<title>rails</title>
<desc>Created using Figma</desc>
<g id="Canvas" transform="translate(-898 -600)">
<g id="rails">
<g id="Vector">
<use xlink:href="#path0_fill" transform="translate(898.937 600)" fill="#828282"/>
</g>
<g id="Group">
<g id="Vector">
<use xlink:href="#path1_fill" transform="translate(904.939 670.954)" fill="#828282"/>
</g>
<g id="Vector">
<use xlink:href="#path2_fill" transform="translate(910.688 647.854)" fill="#828282"/>
</g>
<g id="Vector">
<use xlink:href="#path3_fill" transform="translate(912.828 619.856)" fill="#828282"/>
</g>
<g id="Vector">
<use xlink:href="#path4_fill" transform="translate(921.184 629.621)" fill="#828282"/>
</g>
<g id="Vector">
<use xlink:href="#path5_fill" transform="translate(935.886 617.793)" fill="#828282"/>
</g>
<g id="Vector">
<use xlink:href="#path6_fill" transform="translate(945.169 660.564)" fill="#828282"/>
</g>
<g id="Vector">
<use xlink:href="#path7_fill" transform="translate(945.615 647.97)" fill="#828282"/>
</g>
<g id="Vector">
<use xlink:href="#path8_fill" transform="translate(947.162 677.7)" fill="#828282"/>
</g>
<g id="Vector">
<use xlink:href="#path9_fill" transform="translate(950.036 636.583)" fill="#828282"/>
</g>
<g id="Vector">
<use xlink:href="#path10_fill" transform="translate(952.135 615.58)" fill="#828282"/>
</g>
<g id="Vector">
<use xlink:href="#path11_fill" transform="translate(958.659 631.276)" fill="#828282"/>
</g>
<g id="Vector">
<use xlink:href="#path12_fill" transform="translate(970.482 630.502)" fill="#828282"/>
</g>
<g id="Vector">
<use xlink:href="#path13_fill" transform="translate(971.147 619.781)" fill="#828282"/>
</g>
</g>
</g>
</g>
<defs>
<path id="path0_fill" d="M 20.5923 0L 86.1347 0L 87.1333 0L 87.1333 1.0982L 87.1333 71.6189C 87.1333 73.4628 87.1692 76.0632 87.241 79.4178C 87.3127 82.7643 87.3534 85.2195 87.3534 86.7672C 87.3534 88.3143 87.2233 90.0591 86.9667 92.0112C 86.7058 93.9633 86.2831 95.609 85.6938 96.9312C 84.4387 99.8101 82.1721 101.87 78.8978 103.12C 75.6144 104.38 70.8423 105 64.582 105L 1.24778 104.785L 0.253507 104.785L 0.253507 103.786C 0.325828 87.1368 0.361721 70.4055 0.361721 53.603C 0.361721 48.8899 0.325828 43.5826 0.253507 37.6914C 0.177437 31.7997 0.10565 27.3913 0.0333291 24.4771C -0.0427416 21.5719 0.0108298 18.6577 0.199935 15.7525C 0.379398 12.8383 0.694396 10.4988 1.13529 8.72723C 2.09367 5.04638 4.1224 2.6089 7.21666 1.43034C 9.64985 0.477316 14.107 0 20.5923 0ZM 20.5923 2.09623C 14.4755 2.09623 10.275 2.50069 7.99076 3.31068C 6.66381 3.833 5.63417 4.5246 4.8965 5.41548C 4.15883 6.29726 3.56955 7.58403 3.12866 9.28384C 2.76009 10.831 2.4992 13.0252 2.35563 15.8586C 2.20724 18.692 2.14885 21.5526 2.18903 24.4219C 2.22492 27.3003 2.27902 31.6984 2.35563 37.6357C 2.42742 43.5628 2.46331 48.8888 2.46331 53.602C 2.46331 71.2862 2.39152 87.6484 2.24313 102.678C 29.3586 102.823 50.1415 102.903 64.5831 102.903C 70.6232 102.903 75.157 102.346 78.1789 101.239C 80.9046 100.214 82.7849 98.5142 83.8145 96.1576C 84.2597 94.979 84.5881 93.4678 84.8083 91.6239C 85.0333 89.7805 85.1592 88.1434 85.1956 86.7125C 85.2358 85.2736 85.2133 82.8361 85.1415 79.4178C 85.0697 75.9914 85.0333 73.3916 85.0333 71.6189L 85.0333 2.09623L 20.5923 2.09623Z"/>
<path id="path1_fill" d="M 0.88124 -1.04631e-06L 8.06884 0.557143L 6.84956 7.74424L 1.79834e-07 6.85334L 0.88124 -1.04631e-06Z"/>
<path id="path2_fill" d="M 6.40922 7.85242L 2.2888e-07 5.86441L 1.98801 1.56946e-06L 8.39724 2.54569L 6.40922 7.85242Z"/>
<path id="path3_fill" d="M 0.287825 69.5651C -0.373242 65.5076 0.103543 59.6159 1.72728 51.8797C 2.83352 46.4203 4.25048 41.4821 5.98189 37.0652C 7.71385 32.6397 10.2006 27.4498 13.4433 21.4772C 16.6859 15.5126 20.7562 10.6108 25.6585 6.77891C 30.5565 2.94698 36.2501 0.734504 42.7359 0.14951C 45.3132 -0.147273 47.9307 -0.0031683 50.5792 0.590397C 53.2332 1.18343 55.518 1.99288 57.4337 3.01823C 59.3494 4.05322 61.099 5.08767 62.6863 6.11302C 64.2699 7.14694 65.4661 8.02818 66.2756 8.76585L 67.4943 9.87209L 65.8347 12.4178C 65.5379 12.0492 65.0788 11.6083 64.4536 11.0865C 63.8236 10.5739 62.4972 9.96209 60.4733 9.26085C 58.4451 8.56818 56.3264 8.3255 54.1187 8.5505C 52.0541 8.76585 49.8641 9.43227 47.5434 10.5385C 45.2221 11.6448 42.8789 13.1919 40.5229 15.1799C 38.1615 17.1679 36.1017 19.8207 34.3344 23.1405C 32.5665 26.4501 31.4603 30.1026 31.0151 34.0781C 30.6465 37.5415 30.5924 40.9502 30.8533 44.3053C 31.1099 47.661 31.5685 50.8629 32.2344 53.9213C 32.8949 56.9797 33.5967 59.6689 34.3344 61.9896C 35.0678 64.3103 35.6967 66.173 36.2142 67.5669L 37.096 69.5646L 0.287825 69.5646L 0.287825 69.5651Z"/>
<path id="path4_fill" d="M 4.97405 7.62796L 5.88547e-07 4.30871L 3.8721 -3.92365e-07L 8.6217 3.20247L 4.97405 7.62796Z"/>
<path id="path5_fill" d="M 7.19337e-07 2.32069L 4.64139 6.70291e-07L 7.95583 3.64336L 3.31497 6.29673L 7.19337e-07 2.32069Z"/>
<path id="path6_fill" d="M 0.332674 4.57759e-07L 5.5269 2.77069L 5.85958 7.29475L -2.09261e-06 4.86584L 0.332674 4.57759e-07Z"/>
<path id="path7_fill" d="M 1.76731 -1.27519e-06L 5.74763 3.0948L 4.64139 7.6194L 2.68117e-06 3.64336L 1.76731 -1.27519e-06Z"/>
<path id="path8_fill" d="M 2.94274e-06 1.96183e-07L 6.07601 1.96183e-07L 8.62169 5.41441L 1.32642 4.97352L 2.94274e-06 1.96183e-07Z"/>
<path id="path9_fill" d="M 2.87408 7.8473e-07L 5.63566 4.09335L 3.97604 6.96208L 2.09262e-06 2.54569L 2.87408 7.8473e-07Z"/>
<path id="path10_fill" d="M -3.26972e-06 9.80912e-08L 5.85585 0.224461L 6.40871 3.86728L 0.773563 3.9846L -3.26972e-06 9.80912e-08Z"/>
<path id="path11_fill" d="M 2.74656e-06 0.998027L 3.86728 1.73294e-06L 4.42067 2.21248L 1.76731 4.30871L 2.74656e-06 0.998027Z"/>
<path id="path12_fill" d="M 2.2888e-06 1.89643e-06L 3.7596 0.774102L 3.7596 2.42891L 2.2888e-06 1.98802L 2.2888e-06 1.89643e-06Z"/>
<path id="path13_fill" d="M 0.22071 1.92913e-06L 4.75441 3.31871L 3.86781 4.64138L -3.53128e-06 2.54569L 0.22071 1.92913e-06Z"/>
</defs>
</svg>
