<svg width="1030" height="400" viewBox="0 0 1030 400" version="1.1" xmlns="http://www.w3.org/2000/svg" xmlns:xlink="http://www.w3.org/1999/xlink">
<title>Group</title>
<desc>Created using Figma</desc>
<g id="Canvas" transform="translate(39 -518)">
<g id="Group">
<g id="Group">
<g id="Rectangle 12">
<use xlink:href="#path0_fill" transform="translate(171 518)" fill="#FFFFFF"/>
</g>
<g id="css">
<g id="Vector">
<use xlink:href="#path1_fill" transform="translate(220 561)" fill="#828282"/>
</g>
</g>
</g>
<g id="Group">
<g id="Rectangle 12">
<use xlink:href="#path0_fill" transform="translate(-39 518)" fill="#FFFFFF"/>
</g>
<g id="Group">
<g id="Vector">
<use xlink:href="#path2_fill" transform="translate(10 561)" fill="#828282"/>
</g>
</g>
</g>
<g id="Group">
<g id="Rectangle 12">
<use xlink:href="#path0_fill" transform="translate(801 518)" fill="#FFFFFF"/>
</g>
<g id="js">
<g id="Group">
<g id="Vector">
<use xlink:href="#path3_fill" transform="translate(825 562.226)" fill="#828282"/>
</g>
<g id="Vector">
<use xlink:href="#path4_fill" transform="translate(896.867 561)" fill="#828282"/>
</g>
</g>
</g>
</g>
<g id="Group">
<g id="Rectangle 12">
<use xlink:href="#path0_fill" transform="translate(381 518)" fill="#FFFFFF"/>
</g>
<g id="rails">
<g id="Vector">
<use xlink:href="#path5_fill" transform="translate(432 561)" fill="#828282"/>
</g>
<g id="Group">
<g id="Vector">
<use xlink:href="#path6_fill" transform="translate(438.002 631.954)" fill="#828282"/>
</g>
<g id="Vector">
<use xlink:href="#path7_fill" transform="translate(443.751 608.854)" fill="#828282"/>
</g>
<g id="Vector">
<use xlink:href="#path8_fill" transform="translate(445.891 580.856)" fill="#828282"/>
</g>
<g id="Vector">
<use xlink:href="#path9_fill" transform="translate(454.247 590.621)" fill="#828282"/>
</g>
<g id="Vector">
<use xlink:href="#path10_fill" transform="translate(468.949 578.793)" fill="#828282"/>
</g>
<g id="Vector">
<use xlink:href="#path11_fill" transform="translate(478.232 621.564)" fill="#828282"/>
</g>
<g id="Vector">
<use xlink:href="#path12_fill" transform="translate(478.678 608.97)" fill="#828282"/>
</g>
<g id="Vector">
<use xlink:href="#path13_fill" transform="translate(480.225 638.7)" fill="#828282"/>
</g>
<g id="Vector">
<use xlink:href="#path14_fill" transform="translate(483.099 597.583)" fill="#828282"/>
</g>
<g id="Vector">
<use xlink:href="#path15_fill" transform="translate(485.198 576.58)" fill="#828282"/>
</g>
<g id="Vector">
<use xlink:href="#path16_fill" transform="translate(491.721 592.276)" fill="#828282"/>
</g>
<g id="Vector">
<use xlink:href="#path17_fill" transform="translate(503.545 591.502)" fill="#828282"/>
</g>
<g id="Vector">
<use xlink:href="#path18_fill" transform="translate(504.21 580.781)" fill="#828282"/>
</g>
</g>
</g>
</g>
<g id="Group">
<g id="Rectangle 12">
<use xlink:href="#path0_fill" transform="translate(591 518)" fill="#FFFFFF"/>
</g>
<g id="ruby">
<g id="Group">
<g id="Vector">
<use xlink:href="#path19_fill" transform="translate(633 561)" fill="#828282"/>
</g>
</g>
</g>
</g>
<g id="Group">
<g id="Rectangle 12">
<use xlink:href="#path0_fill" transform="translate(801 728)" fill="#FFFFFF"/>
</g>
<g id="react">
<g id="Page 1">
<g id="React.js logo">
<g id="Oval">
<use xlink:href="#path20_fill" transform="translate(885.468 812.862)" fill="#828282"/>
</g>
<g id="Shape">
<use xlink:href="#path21_fill" transform="translate(837 799.453)" fill="#828282"/>
</g>
<g id="Shape">
<use xlink:href="#path22_fill" transform="translate(859.8 771)" fill="#828282"/>
</g>
<g id="Shape">
<use xlink:href="#path23_fill" transform="translate(859.828 771.114)" fill="#828282"/>
</g>
</g>
</g>
</g>
</g>
<g id="Group">
<g id="Rectangle 12">
<use xlink:href="#path0_fill" transform="translate(381 728)" fill="#FFFFFF"/>
</g>
<g id="sass">
<g id="Vector">
<use xlink:href="#path24_fill" transform="translate(406 771)" fill="#828282"/>
</g>
</g>
</g>
<g id="Group">
<g id="Rectangle 12">
<use xlink:href="#path0_fill" transform="translate(171 728)" fill="#FFFFFF"/>
</g>
<g id="github">
<g id="Group">
<g id="Vector">
<use xlink:href="#path25_fill" transform="translate(212 771)" fill="#828282"/>
</g>
</g>
</g>
</g>
<g id="Group">
<g id="Rectangle 12">
<use xlink:href="#path0_fill" transform="translate(-39 728)" fill="#FFFFFF"/>
</g>
<g id="bootstrap-4">
<g id="Vector">
<use xlink:href="#path26_fill" transform="translate(4 771)" fill="#828282"/>
</g>
<g id="Vector">
<use xlink:href="#path27_fill" transform="translate(33.562 791.712)" fill="#FFFFFF"/>
</g>
</g>
</g>
<g id="Group">
<g id="Rectangle 12">
<use xlink:href="#path0_fill" transform="translate(591 728)" fill="#FFFFFF"/>
</g>
<g id="scketch">
<g id="Sketch">
<g id="&#60;Group&#62;">
<g id="Vector">
<use xlink:href="#path28_stroke" transform="translate(629 805.999)" fill="#828282"/>
</g>
<g id="Vector">
<use xlink:href="#path29_stroke" transform="translate(629 773.501)" fill="#828282"/>
</g>
<g id="Vector">
<use xlink:href="#path30_stroke" transform="translate(651.5 771)" fill="#828282"/>
</g>
<g id="Vector">
<use xlink:href="#path31_stroke" transform="translate(649 771)" fill="#828282"/>
</g>
</g>
</g>
</g>
</g>
</g>
</g>
<defs>
<path id="path0_fill" d="M 0 0L 190 0L 190 190L 0 190L 0 0Z"/>
<path id="path1_fill" d="M 0 3.31119e-07L 8.42619 94.5036L 46.2381 105L 84.1527 94.4884L 92.5876 3.31119e-07L 0 3.31119e-07ZM 74.2487 30.198L 46.3712 42.591L 73.1963 42.591L 70.0758 78.3565L 46.3712 84.9418L 46.3712 84.9324L 46.2793 84.9534L 22.4959 78.3688L 20.8727 60.1811L 32.5084 60.1811L 33.3532 69.4131L 46.2822 72.8859L 46.3712 72.8721L 46.3712 72.8823L 59.2394 69.2945L 60.5262 54.1637L 46.3712 54.1637L 20.3013 54.1637L 19.2864 42.5902L 46.3712 30.998L 48.2396 30.198L 46.3712 30.198L 18.2564 30.198L 17.2285 18.6245L 46.2533 18.6245L 46.3712 18.6245L 75.2448 18.6245L 74.2487 30.198Z"/>
<path id="path2_fill" d="M 0 3.30436e-07L 92.3964 3.30436e-07L 83.9941 94.3672L 46.0647 105L 8.39725 94.3672L 0 3.30436e-07ZM 74.1518 30.7753L 75.2042 19.2921L 17.1922 19.2921L 20.2781 54.3371L 60.4381 54.3371L 58.993 69.2945L 46.064 72.7781L 33.2021 69.2945L 32.3503 60.1076L 20.8672 60.1076L 22.3123 78.3566L 46.0647 84.9124L 46.3282 84.9124L 46.3282 84.8446L 69.8893 78.3566L 73.1672 42.6518L 30.9073 42.6518L 29.9263 30.7753L 74.1518 30.7753Z"/>
<path id="path3_fill" d="M 40.4211 75.3685L 39.8979 77.0055C 39.3727 79.1909 38.4939 80.9231 37.2741 82.1963C 35.6976 83.8333 33.1586 84.6513 29.6608 84.6513C 27.036 84.6513 24.8468 84.0167 23.0969 82.7406C 21.3452 81.4695 19.5086 79.1909 17.5862 75.9128C 16.8838 74.6417 16.4907 74.0031 16.4059 74.0031C 16.3143 74.0031 13.5585 75.7354 8.13644 79.1909L -1.32327e-06 84.3796L 0.785316 85.4723C 4.46233 93.484 10.3228 98.8532 18.3735 101.584C 27.2972 104.678 35.9588 104.493 44.3592 101.038C 53.6327 97.0308 58.968 89.1153 60.3691 77.2802C 60.5425 76.007 60.6321 62.8065 60.6321 37.6847L 60.6321 -3.18166e-06L 50.3951 -3.18166e-06L 40.4211 -3.18166e-06L 40.4211 37.6847L 40.4211 75.3685Z"/>
<path id="path4_fill" d="M 13.1772 8.59838C 8.27738 13.6959 5.82894 20.1598 5.82894 27.984C 5.82894 39.4542 10.9012 48.3761 21.0505 54.7468C 23.4989 56.3858 27.6992 58.4809 33.6512 61.0282C 40.9994 64.3042 45.5484 66.9467 47.3002 68.9476C 50.2728 72.2237 50.8837 75.7744 49.1368 79.5958C 48.6107 80.5101 47.9959 81.3291 47.3002 82.0538C 44.6745 84.7856 40.9994 86.1509 36.275 86.1509C 28.4026 86.1509 22.1008 82.51 17.3764 75.2281C 16.674 73.9559 16.2818 73.3164 16.196 73.3164C 16.1064 73.3164 13.4383 74.9123 8.18873 78.0961C 2.93918 81.284 0.22286 82.9671 0.0532715 83.1475C -0.123063 83.33 0.138067 83.9655 0.840513 85.0582C 6.96306 95.9811 16.674 102.353 29.9751 104.173C 34.3478 104.898 38.7225 104.898 43.099 104.173C 51.3202 103.082 57.7983 100.166 62.5218 95.4357C 67.594 90.3402 70.133 83.6026 70.133 75.2281C 70.133 70.1346 69.1704 65.5804 67.2481 61.5735C 66.1949 59.0263 64.6224 56.6585 62.5218 54.4731C 58.494 50.2888 51.4079 45.9201 41.2634 41.3659C 34.0848 38.2733 29.7121 35.8162 28.1366 33.9938C 26.3877 31.9929 25.6005 29.626 25.7759 26.8943C 25.9474 24.709 26.6489 22.8925 27.8755 21.4339C 29.7978 19.431 32.4255 18.4285 35.7498 18.4285C 39.4239 18.4285 42.3975 19.7047 44.6754 22.2529C 45.8963 23.3436 46.8146 24.4363 47.4312 25.53C 48.0431 26.6217 48.4363 27.169 48.6116 27.169C 48.9614 26.9896 51.6315 25.2152 56.617 21.8439C 61.6054 18.4786 64.0991 16.7494 64.0991 16.6542C 64.0991 16.5649 63.573 15.6096 62.5237 13.7881C 60.0724 10.1472 57.3609 7.32826 54.3882 5.32333C 50.188 2.22973 45.0242 0.502484 38.9026 0.13458C 36.6248 -0.0448608 34.4403 -0.0448608 32.3388 0.13458C 24.4625 0.678917 18.0731 3.50286 13.1772 8.59838Z"/>
<path id="path5_fill" d="M 20.5923 0L 86.1347 0L 87.1333 0L 87.1333 1.0982L 87.1333 71.6189C 87.1333 73.4628 87.1692 76.0632 87.241 79.4178C 87.3127 82.7643 87.3534 85.2195 87.3534 86.7672C 87.3534 88.3143 87.2233 90.0591 86.9667 92.0112C 86.7058 93.9633 86.2831 95.609 85.6938 96.9312C 84.4387 99.8101 82.1721 101.87 78.8978 103.12C 75.6144 104.38 70.8423 105 64.582 105L 1.24778 104.785L 0.253507 104.785L 0.253507 103.786C 0.325828 87.1368 0.361721 70.4055 0.361721 53.603C 0.361721 48.8899 0.325828 43.5826 0.253507 37.6914C 0.177437 31.7997 0.10565 27.3913 0.0333291 24.4771C -0.0427416 21.5719 0.0108298 18.6577 0.199935 15.7525C 0.379398 12.8383 0.694396 10.4988 1.13529 8.72723C 2.09367 5.04638 4.1224 2.6089 7.21666 1.43034C 9.64985 0.477316 14.107 0 20.5923 0ZM 20.5923 2.09623C 14.4755 2.09623 10.275 2.50069 7.99076 3.31068C 6.66381 3.833 5.63417 4.5246 4.8965 5.41548C 4.15883 6.29726 3.56955 7.58403 3.12866 9.28384C 2.76009 10.831 2.4992 13.0252 2.35563 15.8586C 2.20724 18.692 2.14885 21.5526 2.18903 24.4219C 2.22492 27.3003 2.27902 31.6984 2.35563 37.6357C 2.42742 43.5628 2.46331 48.8888 2.46331 53.602C 2.46331 71.2862 2.39152 87.6484 2.24313 102.678C 29.3586 102.823 50.1415 102.903 64.5831 102.903C 70.6232 102.903 75.157 102.346 78.1789 101.239C 80.9046 100.214 82.7849 98.5142 83.8145 96.1576C 84.2597 94.979 84.5881 93.4678 84.8083 91.6239C 85.0333 89.7805 85.1592 88.1434 85.1956 86.7125C 85.2358 85.2736 85.2133 82.8361 85.1415 79.4178C 85.0697 75.9914 85.0333 73.3916 85.0333 71.6189L 85.0333 2.09623L 20.5923 2.09623Z"/>
<path id="path6_fill" d="M 0.88124 -1.04631e-06L 8.06884 0.557143L 6.84956 7.74424L 1.79834e-07 6.85334L 0.88124 -1.04631e-06Z"/>
<path id="path7_fill" d="M 6.40922 7.85242L 2.2888e-07 5.86441L 1.98801 1.56946e-06L 8.39724 2.54569L 6.40922 7.85242Z"/>
<path id="path8_fill" d="M 0.287825 69.5651C -0.373242 65.5076 0.103543 59.6159 1.72728 51.8797C 2.83352 46.4203 4.25048 41.4821 5.98189 37.0652C 7.71385 32.6397 10.2006 27.4498 13.4433 21.4772C 16.6859 15.5126 20.7562 10.6108 25.6585 6.77891C 30.5565 2.94698 36.2501 0.734504 42.7359 0.14951C 45.3132 -0.147273 47.9307 -0.0031683 50.5792 0.590397C 53.2332 1.18343 55.518 1.99288 57.4337 3.01823C 59.3494 4.05322 61.099 5.08767 62.6863 6.11302C 64.2699 7.14694 65.4661 8.02818 66.2756 8.76585L 67.4943 9.87209L 65.8347 12.4178C 65.5379 12.0492 65.0788 11.6083 64.4536 11.0865C 63.8236 10.5739 62.4972 9.96209 60.4733 9.26085C 58.4451 8.56818 56.3264 8.3255 54.1187 8.5505C 52.0541 8.76585 49.8641 9.43227 47.5434 10.5385C 45.2221 11.6448 42.8789 13.1919 40.5229 15.1799C 38.1615 17.1679 36.1017 19.8207 34.3344 23.1405C 32.5665 26.4501 31.4603 30.1026 31.0151 34.0781C 30.6465 37.5415 30.5924 40.9502 30.8533 44.3053C 31.1099 47.661 31.5685 50.8629 32.2344 53.9213C 32.8949 56.9797 33.5967 59.6689 34.3344 61.9896C 35.0678 64.3103 35.6967 66.173 36.2142 67.5669L 37.096 69.5646L 0.287825 69.5646L 0.287825 69.5651Z"/>
<path id="path9_fill" d="M 4.97405 7.62796L 5.88547e-07 4.30871L 3.8721 -3.92365e-07L 8.6217 3.20247L 4.97405 7.62796Z"/>
<path id="path10_fill" d="M 7.19337e-07 2.32069L 4.64139 6.70291e-07L 7.95583 3.64336L 3.31497 6.29673L 7.19337e-07 2.32069Z"/>
<path id="path11_fill" d="M 0.332674 4.57759e-07L 5.5269 2.77069L 5.85958 7.29475L -2.09261e-06 4.86584L 0.332674 4.57759e-07Z"/>
<path id="path12_fill" d="M 1.76731 -1.27519e-06L 5.74763 3.0948L 4.64139 7.6194L 2.68117e-06 3.64336L 1.76731 -1.27519e-06Z"/>
<path id="path13_fill" d="M 2.94274e-06 1.96183e-07L 6.07601 1.96183e-07L 8.62169 5.41441L 1.32642 4.97352L 2.94274e-06 1.96183e-07Z"/>
<path id="path14_fill" d="M 2.87408 7.8473e-07L 5.63566 4.09335L 3.97604 6.96208L 2.09262e-06 2.54569L 2.87408 7.8473e-07Z"/>
<path id="path15_fill" d="M -3.26972e-06 9.80912e-08L 5.85585 0.224461L 6.40871 3.86728L 0.773563 3.9846L -3.26972e-06 9.80912e-08Z"/>
<path id="path16_fill" d="M 2.74656e-06 0.998027L 3.86728 1.73294e-06L 4.42067 2.21248L 1.76731 4.30871L 2.74656e-06 0.998027Z"/>
<path id="path17_fill" d="M 2.2888e-06 1.89643e-06L 3.7596 0.774102L 3.7596 2.42891L 2.2888e-06 1.98802L 2.2888e-06 1.89643e-06Z"/>
<path id="path18_fill" d="M 0.22071 1.92913e-06L 4.75441 3.31871L 3.86781 4.64138L -3.53128e-06 2.54569L 0.22071 1.92913e-06Z"/>
<path id="path19_fill" d="M 0.117939 92.8105L 3.37922 61.1924L 9.16925 66.0154L 0 94.5005L 0.117939 92.8105ZM 10.8585 70.1214L 25.2237 98.7243L 1.08563 101.739L 10.8585 70.1214ZM 26.9129 101.985L 26.9129 102.103L 26.9129 101.985L 27.3942 101.867L 27.3942 101.985L 95.5904 104.637L 2.77487 105L 26.9129 101.985ZM 52.7409 25.1058L 30.2921 50.0841L 10.3772 62.6377L 4.70513 57.8146L 12.6708 42.8451L 31.6232 21.717L 49.7251 9.04619L 58.0548 11.3449L 52.7409 25.1058ZM 25.1013 92.0838L 11.8262 65.6521L 30.4145 53.8259L 25.1013 92.0838ZM 72.2969 62.1557L 27.5173 97.5163L 33.5534 54.072L 72.2969 62.1557ZM 74.8308 64.5716L 102.711 102.348L 30.5324 99.5682L 74.8308 64.5716ZM 54.6756 27.9935L 71.3292 59.5039L 33.793 51.1741L 54.6756 27.9935ZM 84.2454 5.36532e-07L 59.2577 8.08363L 54.7935 6.87566L 84.2454 5.36532e-07ZM 56.3656 25.1058L 61.9153 10.9816L 92.8162 15.9321L 56.3656 25.1058ZM 57.8138 27.9935L 97.2796 17.376L 74.5905 59.739L 57.8138 27.9935ZM 101.262 14.596L 68.191 8.81105L 94.6227 0.235879L 101.262 14.596ZM 105.486 101.867L 76.7611 62.8824L 101.626 16.2859L 105.486 101.867Z"/>
<path id="path20_fill" d="M 10.5384 21.0768C 16.3586 21.0768 21.0768 16.3586 21.0768 10.5384C 21.0768 4.71821 16.3586 0 10.5384 0C 4.71821 0 0 4.71821 0 10.5384C 0 16.3586 4.71821 21.0768 10.5384 21.0768Z"/>
<path id="path21_fill" fill-rule="evenodd" d="M 59.008 5.0416C 72.6241 5.0416 85.5585 6.96126 95.3918 10.3465C 106.313 14.1061 112.974 19.6647 112.974 23.9476C 112.974 28.5097 105.78 34.4324 94.0984 38.3029C 84.7985 41.3842 72.3558 43.0636 59.008 43.0636C 44.9859 43.0636 32.4028 41.4169 23.2108 38.2749C 17.4562 36.308 12.7038 33.7518 9.44645 30.9623C 6.51938 28.4556 5.04161 25.9669 5.04161 23.9476C 5.04161 19.6503 11.4483 14.1689 22.1338 10.4435C 31.9713 7.01393 45.2223 5.0416 59.008 5.0416ZM 59.008 1.2565e-06C 44.6867 1.2565e-06 30.8807 2.05495 20.4741 5.68289C 7.97945 10.0391 4.40738e-09 16.866 4.40738e-09 23.9476C 4.40738e-09 31.2616 8.56608 38.5973 21.5802 43.0456C 31.3624 46.3892 44.4745 48.1052 59.008 48.1052C 72.8591 48.1052 85.8253 46.3551 95.6841 43.0886C 109.213 38.606 118.016 31.3593 118.016 23.9476C 118.016 16.8404 109.779 9.96748 97.0329 5.57948C 86.6389 2.00121 73.155 1.2565e-06 59.008 1.2565e-06Z"/>
<path id="path22_fill" fill-rule="evenodd" d="M 19.7386 43.0083C 26.5407 31.2133 34.6653 20.9676 42.5103 14.1403C 51.2231 6.55805 59.3663 3.56414 63.0764 5.70368C 67.0285 7.98272 68.5652 17.174 66.0822 29.2268C 64.1053 38.8224 59.3442 50.4403 52.6761 62.003C 45.671 74.1501 37.9585 84.2276 30.6445 90.6208C 26.0657 94.6233 21.4772 97.4631 17.4334 98.8912C 13.7997 100.175 10.9055 100.211 9.15611 99.2026C 5.43353 97.0557 3.88588 88.7675 5.99684 77.6499C 7.94017 67.415 12.8513 54.9509 19.7386 43.0083L 19.7386 43.0083ZM 15.3712 40.4896C 8.21638 52.8963 3.09949 65.8824 1.04373 76.7094C -1.42463 89.7094 0.502936 100.032 6.63746 103.57C 12.9736 107.224 23.6077 103.468 33.9625 94.4166C 41.7461 87.6129 49.783 77.1117 57.0435 64.5216C 63.963 52.5229 68.9245 40.4164 71.0201 30.2441C 73.8959 16.2848 72.0157 5.03882 65.595 1.33624C 59.4383 -2.21416 49.3696 1.48767 39.2006 10.3372C 30.9083 17.5538 22.4385 28.2347 15.3712 40.4896L 15.3712 40.4896Z"/>
<path id="path23_fill" fill-rule="evenodd" d="M 19.7271 61.9158C 12.9053 50.1322 8.08634 37.9764 6.08941 27.7702C 3.87154 16.4351 5.34459 7.88488 9.05121 5.73915C 12.9995 3.45336 21.73 6.71234 30.9319 14.8829C 38.258 21.3876 45.9453 31.3144 52.6329 42.8662C 59.6583 55.0015 64.5374 66.7163 66.4237 76.2458C 67.6046 82.2115 67.7733 87.605 66.9911 91.8217C 66.2882 95.6107 64.8747 98.1364 63.127 99.1482C 59.4079 101.301 51.4543 98.5028 42.8766 91.1216C 34.9801 84.3265 26.6343 73.8469 19.7271 61.9158L 19.7271 61.9158ZM 15.3639 64.4418C 22.5395 76.8363 31.2348 87.7549 39.5882 94.9431C 49.618 103.574 59.5242 107.059 65.6529 103.511C 71.9829 99.8469 74.04 88.7583 71.3694 75.2668C 69.362 65.1254 64.2776 52.9181 56.9961 40.3403C 50.0564 28.353 42.0456 18.0086 34.2793 11.1129C 23.6219 1.64997 12.9397 -2.33753 6.52529 1.37595C 0.374442 4.93664 -1.44693 15.5087 1.14162 28.7382C 3.25242 39.5264 8.27613 52.1986 15.3639 64.4417L 15.3639 64.4418Z"/>
<path id="path24_fill" d="M 120.552 60.3512C 115.656 60.3772 111.416 61.5526 107.861 63.3049C 106.561 60.7099 105.245 58.4271 105.024 56.7299C 104.766 54.7482 104.467 53.5666 104.778 51.2065C 105.09 48.8456 106.455 45.5041 106.435 45.2534C 106.416 45.0027 106.129 43.8006 103.305 43.7801C 100.482 43.7596 98.0664 44.3232 97.7818 45.069C 97.4972 45.8147 96.9533 47.4929 96.616 49.2421C 96.1209 51.8032 90.9782 60.9345 88.0576 65.7123C 87.1023 63.848 86.2903 62.2037 86.1208 60.903C 85.8631 58.9213 85.5643 57.7397 85.8749 55.3788C 86.1871 53.0195 87.5524 49.6764 87.5327 49.4257C 87.5137 49.1751 87.2268 47.973 84.4024 47.9525C 81.5788 47.932 79.1635 48.4956 78.879 49.2413C 78.5944 49.987 78.2909 51.7299 77.7131 53.4144C 77.1345 55.1005 70.2978 70.3331 68.5069 74.2824C 67.5948 76.2941 66.8002 77.91 66.2398 79.0144C 66.2382 79.0113 66.2366 79.0081 66.2366 79.0081C 66.2366 79.0081 66.2019 79.0814 66.1428 79.2052C 65.6628 80.1448 65.3774 80.6651 65.3774 80.6651C 65.3774 80.6651 65.3806 80.6722 65.3861 80.684C 65.0053 81.3737 64.5978 82.0146 64.396 82.0146C 64.2549 82.0146 63.9719 80.1779 64.4575 77.657C 65.4752 72.3732 67.9188 64.1318 67.8944 63.848C 67.8818 63.7022 68.3484 62.2667 66.2989 61.5155C 64.3061 60.7856 63.5959 62.0027 63.4146 62.0066C 63.238 62.0106 63.1072 62.4362 63.1072 62.4362C 63.1072 62.4362 65.327 53.1685 58.8726 53.1685C 54.8366 53.1685 49.2454 57.5836 46.4903 61.5849C 44.7514 62.5332 41.0315 64.5638 37.0847 66.7323C 35.5688 67.5655 34.0222 68.4169 32.5552 69.2248C 32.4559 69.1137 32.3558 69.0033 32.2533 68.8938C 24.4265 60.5428 9.95697 54.6362 10.571 43.4096C 10.7941 39.3279 12.213 28.5814 38.3743 15.5457C 59.8043 4.86696 76.9595 7.80565 79.9242 14.3184C 84.1596 23.6224 70.755 40.9147 48.5005 43.4096C 40.021 44.3603 35.5562 41.074 34.4455 39.8498C 33.2765 38.561 33.1023 38.5034 32.6656 38.7446C 31.9546 39.1388 32.4047 40.2762 32.6656 40.9542C 33.3301 42.6836 36.0567 45.75 40.7052 47.2761C 44.7948 48.6178 54.7499 49.3556 66.7892 44.6985C 80.2734 39.4825 90.8032 24.9735 87.71 12.8451C 84.5656 0.510178 64.113 -3.54471 44.7561 3.3322C 33.2363 7.42492 20.765 13.8486 11.7984 22.235C 1.13696 32.2075 -0.563347 40.8872 0.13743 44.514C 2.6268 57.3999 20.3882 65.7919 27.5 72.0106C 27.1492 72.2045 26.8197 72.3866 26.5202 72.5521C 22.9548 74.3155 9.41542 81.4013 6.02821 88.8876C 2.18694 97.3796 6.63991 103.472 9.58805 104.293C 18.7218 106.835 28.0952 102.263 33.1322 94.7499C 38.1685 87.2385 37.5537 77.4568 35.2425 72.992C 35.2133 72.9368 35.1818 72.8824 35.1526 72.8272C 36.0733 72.2825 37.0121 71.7276 37.9431 71.1813C 39.7577 70.1156 41.5392 69.1224 43.085 68.2805C 42.2203 70.6508 41.5865 73.491 41.257 77.5947C 40.8699 82.415 42.8454 88.6455 45.4301 91.0971C 46.5684 92.1762 47.9376 92.2014 48.8055 92.2014C 51.8136 92.2014 53.1867 89.6987 54.6979 86.7387C 56.5519 83.1095 58.1962 78.8828 58.1962 78.8828C 58.1962 78.8828 56.1317 90.2978 61.7561 90.2978C 63.8056 90.2978 65.8661 87.6405 66.7845 86.2854C 66.7868 86.3012 66.7884 86.3083 66.7884 86.3083C 66.7884 86.3083 66.842 86.22 66.9461 86.0427C 67.1589 85.7179 67.2795 85.5106 67.2795 85.5106C 67.2795 85.5106 67.2835 85.4893 67.2906 85.4515C 68.1143 84.0223 69.9407 80.7612 72.6808 75.3836C 76.2209 68.4373 79.616 59.7332 79.616 59.7332C 79.616 59.7332 79.9321 61.8608 80.9663 65.3796C 81.5749 67.4496 82.8677 69.738 83.8885 71.9326C 83.0671 73.0716 82.5618 73.7259 82.5618 73.7259C 82.5618 73.7259 82.5665 73.7385 82.576 73.7598C 81.9201 74.6308 81.1839 75.5712 80.4145 76.488C 77.6209 79.8153 74.2928 83.6148 73.8474 84.7121C 73.3224 86.0048 73.4462 86.9547 74.4607 87.7193C 75.2017 88.2774 76.5212 88.3641 77.8976 88.2711C 80.4082 88.1024 82.1748 87.4797 83.0458 87.1005C 84.4048 86.6205 85.9868 85.8653 87.472 84.7735C 90.2128 82.7579 91.865 79.876 91.7066 76.0576C 91.6191 73.9537 90.9475 71.8687 90.0985 69.8996C 90.3468 69.5417 90.5967 69.1807 90.8466 68.8157C 95.1671 62.4993 98.5181 55.5585 98.5181 55.5585C 98.5181 55.5585 98.8342 57.6861 99.8692 61.2057C 100.393 62.9864 101.425 64.9295 102.354 66.8348C 98.2918 70.1361 95.7717 73.9718 94.8967 76.488C 93.2792 81.1412 94.5467 83.2498 96.9226 83.7299C 97.9986 83.9474 99.5192 83.454 100.662 82.97C 102.085 82.4986 103.796 81.7127 105.392 80.5389C 108.133 78.5233 110.767 75.7021 110.609 71.8845C 110.536 70.1463 110.065 68.4208 109.425 66.7638C 112.869 65.33 117.327 64.5322 123.006 65.1952C 135.189 66.618 137.578 74.2248 137.121 77.4087C 136.665 80.5917 134.109 82.3425 133.255 82.8714C 132.4 83.3996 132.14 83.5825 132.212 83.9758C 132.316 84.5473 132.711 84.5244 133.439 84.4023C 134.442 84.2328 139.837 81.8128 140.068 75.9354C 140.363 68.4799 133.215 60.2842 120.552 60.3512ZM 26.6471 92.0099C 22.6119 96.4124 16.9742 98.0757 14.5566 96.6749C 11.9458 95.1606 12.98 88.6794 17.9319 84.0089C 20.9502 81.1617 24.8467 78.5399 27.4314 76.9247C 28.0195 76.5708 28.8842 76.0505 29.9342 75.4215C 30.1084 75.3221 30.207 75.2677 30.207 75.2677L 30.203 75.2607C 30.4056 75.1393 30.6137 75.0147 30.8281 74.8862C 32.6301 81.5353 30.8833 87.3898 26.6471 92.0099ZM 56.0458 72.0248C 54.6403 75.4514 51.6985 84.2178 49.9083 83.7472C 48.3712 83.3444 47.4355 76.6803 49.6009 70.1227C 50.6911 66.8214 53.0196 62.8769 54.3881 61.3452C 56.5905 58.8819 59.016 58.0763 59.6049 59.075C 60.3561 60.3473 56.9271 69.8767 56.0458 72.0248ZM 80.3341 83.614C 79.7382 83.9254 79.1919 84.1216 78.9381 83.9703C 78.7521 83.8584 79.184 83.4484 79.184 83.4484C 79.184 83.4484 82.2221 80.1803 83.4186 78.692C 84.1147 77.8265 84.9211 76.8001 85.8008 75.6508C 85.8079 75.7659 85.8119 75.8794 85.8119 75.9922C 85.8032 79.9075 82.0203 82.5506 80.3341 83.614ZM 99.0446 79.3486C 98.6008 79.0325 98.6741 78.0101 100.136 74.8255C 100.71 73.5753 102.02 71.4706 104.295 69.459C 104.559 70.2866 104.719 71.0796 104.715 71.8175C 104.686 76.7442 101.171 78.584 99.0446 79.3486Z"/>
<path id="path25_fill" d="M 100.414 26.8031C 95.6015 18.5575 89.0738 12.0296 80.829 7.21764C 72.583 2.40547 63.5808 -5.61747e-08 53.816 -5.61747e-08C 44.0525 -5.61747e-08 35.0474 2.40621 26.8031 7.21764C 18.5576 12.0293 12.0301 18.5575 7.21765 26.8031C 2.40597 35.0483 0 44.0522 0 53.8145C 0 65.5412 3.42132 76.0861 10.2657 85.452C 17.1093 94.8187 25.9502 101.3 36.7877 104.897C 38.0493 105.131 38.9831 104.966 39.5903 104.407C 40.1978 103.847 40.5011 103.145 40.5011 102.306C 40.5011 102.165 40.4891 100.905 40.4658 98.5217C 40.4417 96.1388 40.4304 94.06 40.4304 92.2863L 38.8187 92.5651C 37.7911 92.7534 36.4947 92.8331 34.9296 92.8105C 33.3652 92.7887 31.7412 92.6248 30.0597 92.3199C 28.3775 92.0178 26.8129 91.3171 25.3646 90.2193C 23.9171 89.1215 22.8894 87.6845 22.282 85.9105L 21.5813 84.298C 21.1142 83.2245 20.3789 82.0319 19.3744 80.7248C 18.3698 79.4164 17.354 78.5294 16.3264 78.0623L 15.8357 77.7111C 15.5088 77.4777 15.2055 77.1962 14.9249 76.8695C 14.6447 76.5429 14.4348 76.216 14.2947 75.8886C 14.1543 75.5609 14.2706 75.2922 14.6449 75.0813C 15.0192 74.8705 15.6956 74.7682 16.6771 74.7682L 18.078 74.9775C 19.0124 75.1648 20.1681 75.7241 21.5467 76.659C 22.9245 77.5931 24.0572 78.8075 24.9449 80.3017C 26.0199 82.2175 27.3151 83.6773 28.834 84.6819C 30.3518 85.6864 31.8821 86.1878 33.4234 86.1878C 34.9647 86.1878 36.2959 86.071 37.4175 85.8386C 38.5379 85.6049 39.5891 85.2537 40.5706 84.7869C 40.991 81.6557 42.1357 79.2502 44.0037 77.5688C 41.3412 77.289 38.9475 76.8676 36.8214 76.3073C 34.6964 75.7462 32.5005 74.8357 30.2352 73.5732C 27.9687 72.3124 26.0884 70.7468 24.594 68.879C 23.0993 67.0103 21.8726 64.557 20.9157 61.5213C 19.9583 58.4843 19.4794 54.981 19.4794 51.0104C 19.4794 45.3569 21.3251 40.546 25.0156 36.5749C 23.2868 32.3245 23.45 27.5597 25.5057 22.281C 26.8605 21.8601 28.8696 22.1759 31.5321 23.2266C 34.195 24.2778 36.1447 25.1783 37.3832 25.9249C 38.6216 26.6713 39.6139 27.3037 40.3615 27.8167C 44.7068 26.6025 49.1911 25.9953 53.8155 25.9953C 58.44 25.9953 62.9252 26.6025 67.2709 27.8167L 69.9335 26.1357C 71.7544 25.0141 73.9046 23.9862 76.3791 23.0519C 78.855 22.118 80.7482 21.8608 82.0569 22.2817C 84.1583 27.5607 84.3455 32.3253 82.6162 36.5756C 86.3065 40.5467 88.1529 45.3589 88.1529 51.0112C 88.1529 54.9817 87.6723 58.4961 86.7164 61.5564C 85.7592 64.6171 84.522 67.068 83.0042 68.9141C 81.4848 70.76 79.5925 72.3134 77.3272 73.5739C 75.0613 74.8354 72.8647 75.746 70.7398 76.307C 68.6139 76.8681 66.2202 77.2897 63.5577 77.57C 65.986 79.6714 67.2004 82.9884 67.2004 87.5195L 67.2004 102.304C 67.2004 103.143 67.4925 103.845 68.0771 104.405C 68.661 104.964 69.5831 105.129 70.8446 104.895C 81.6836 101.298 90.5245 94.8167 97.3679 85.4501C 104.211 76.0842 107.633 65.5392 107.633 53.8125C 107.631 44.0515 105.223 35.0483 100.414 26.8031Z"/>
<path id="path26_fill" d="M 0 91.4612C 0 98.9391 6.0617 105 13.5388 105L 91.4607 105C 98.9391 105 105 98.9383 105 91.4612L 105 13.5393C 105 6.06088 98.9383 0 91.4612 0L 13.5393 0C 6.06088 0 0 6.0617 0 13.5388L 0 91.4607L 0 91.4612Z"/>
<path id="path27_fill" d="M 13.9794 25.7324L 13.9794 10.863L 27.0679 10.863C 28.3147 10.863 29.5165 10.9668 30.674 11.1747C 31.8314 11.3823 32.8556 11.753 33.746 12.2875C 34.6361 12.8219 35.3485 13.5639 35.883 14.5134C 36.417 15.4633 36.6844 16.6803 36.6844 18.1638C 36.6844 20.8351 35.883 22.7645 34.2801 23.9515C 32.6776 25.1389 30.6297 25.7324 28.1363 25.7324L 13.9794 25.7324ZM -1.2517e-06 2.91434e-15L -1.2517e-06 63.5743L 30.8077 63.5743C 33.657 63.5743 36.4322 63.2183 39.133 62.5059C 41.8339 61.7934 44.2378 60.6954 46.3452 59.2115C 48.4522 57.7275 50.1293 55.8129 51.3758 53.4685C 52.6227 51.1236 53.2457 48.3485 53.2457 45.1431C 53.2457 41.1658 52.281 37.7677 50.352 34.9482C 48.4227 32.1284 45.4991 30.1547 41.5813 29.0268C 44.4306 27.6618 46.5827 25.9104 48.0371 23.7735C 49.4911 21.6366 50.2183 18.9657 50.2183 15.7599C 50.2183 12.792 49.7286 10.299 48.7491 8.28066C 47.7697 6.26269 46.3895 4.64503 44.6086 3.42809C 42.8281 2.21116 40.6912 1.33547 38.1979 0.801446C 35.7049 0.267012 32.9446 2.91434e-15 29.9172 2.91434e-15L -1.2517e-06 2.91434e-15ZM 13.9794 52.7113L 13.9794 35.2595L 29.2048 35.2595C 32.2322 35.2595 34.666 35.9568 36.5064 37.3522C 38.3463 38.7471 39.2667 41.0768 39.2667 44.3416C 39.2667 46.004 38.9846 47.369 38.4206 48.4375C 37.8566 49.5059 37.0999 50.3521 36.15 50.9751C 35.2005 51.5986 34.1021 52.0436 32.8556 52.311C 31.6087 52.5776 30.3032 52.7113 28.9378 52.7113L 13.9794 52.7113Z"/>
<path id="path28_stroke" d="M 0 0L 0 -3C -1.16022 -3 -2.21643 -2.331 -2.71226 -1.28206C -3.20808 -0.233119 -3.05462 1.00769 -2.31818 1.90422L 0 0ZM 114.999 0L 117.317 1.90422C 118.053 1.00769 118.207 -0.233119 117.711 -1.28206C 117.215 -2.331 116.159 -3 114.999 -3L 114.999 0ZM 57.4994 69.9993L 55.1813 71.9035C 55.7511 72.5972 56.6017 72.9993 57.4994 72.9993C 58.3972 72.9993 59.2478 72.5972 59.8176 71.9035L 57.4994 69.9993ZM 0 3L 114.999 3L 114.999 -3L 0 -3L 0 3ZM 112.681 -1.90422L 55.1813 68.0951L 59.8176 71.9035L 117.317 1.90422L 112.681 -1.90422ZM 59.8176 68.0951L 2.31818 -1.90422L -2.31818 1.90422L 55.1813 71.9035L 59.8176 68.0951Z"/>
<path id="path29_stroke" d="M -2.46658 30.792C -3.40967 32.1543 -3.06988 34.0231 -1.70763 34.9662C -0.34538 35.9093 1.52348 35.5695 2.46658 34.2073L -2.46658 30.792ZM 22.4998 0L 25.4909 0.23009C 25.5949 -1.12085 24.7804 -2.37377 23.5035 -2.8271C 22.2267 -3.28044 20.8044 -2.82165 20.0332 -1.70763L 22.4998 0ZM 19.9998 32.4996L 17.0086 32.2695C 16.9647 32.8403 17.085 33.4117 17.3554 33.9163L 19.9998 32.4996ZM 57.4994 102.499L 54.855 103.916C 55.3773 104.89 56.3935 105.499 57.4994 105.499C 58.6054 105.499 59.6216 104.89 60.1439 103.916L 57.4994 102.499ZM 94.9991 32.4996L 97.6435 33.9163C 97.9138 33.4117 98.0341 32.8403 97.9902 32.2695L 94.9991 32.4996ZM 92.4991 0L 94.9657 -1.70763C 94.1944 -2.82165 92.7722 -3.28044 91.4954 -2.8271C 90.2185 -2.37377 89.404 -1.12085 89.5079 0.23009L 92.4991 0ZM 112.532 34.2073C 113.475 35.5695 115.344 35.9093 116.707 34.9662C 118.069 34.0231 118.409 32.1543 117.465 30.792L 112.532 34.2073ZM 2.46658 34.2073L 24.9664 1.70763L 20.0332 -1.70763L -2.46658 30.792L 2.46658 34.2073ZM 19.5086 -0.23009L 17.0086 32.2695L 22.991 32.7297L 25.4909 0.23009L 19.5086 -0.23009ZM 17.3554 33.9163L 54.855 103.916L 60.1439 101.082L 22.6442 31.083L 17.3554 33.9163ZM 60.1439 103.916L 97.6435 33.9163L 92.3546 31.083L 54.855 101.082L 60.1439 103.916ZM 97.9902 32.2695L 95.4903 -0.23009L 89.5079 0.23009L 92.0079 32.7297L 97.9902 32.2695ZM 90.0325 1.70763L 112.532 34.2073L 117.465 30.792L 94.9657 -1.70763L 90.0325 1.70763Z"/>
<path id="path30_stroke" d="M -0.213741 -0.492397C -1.86639 -0.374351 -3.11042 1.06108 -2.99238 2.71372C -2.87433 4.36636 -1.4389 5.6104 0.213741 5.49235L -0.213741 -0.492397ZM 34.9996 0L 35.2134 -2.99238C 35.0711 -3.00254 34.9282 -3.00254 34.7859 -2.99238L 34.9996 0ZM 69.7856 5.49235C 71.4382 5.6104 72.8736 4.36636 72.9917 2.71372C 73.1097 1.06108 71.8657 -0.374351 70.213 -0.492397L 69.7856 5.49235ZM 0.213741 5.49235L 35.2134 2.99238L 34.7859 -2.99238L -0.213741 -0.492397L 0.213741 5.49235ZM 34.7859 2.99238L 69.7856 5.49235L 70.213 -0.492397L 35.2134 -2.99238L 34.7859 2.99238Z"/>
<path id="path31_stroke" d="M -2.04695 32.8065C -3.25821 33.937 -3.32367 35.8354 -2.19317 37.0466C -1.06266 38.2579 0.835702 38.3233 2.04695 37.1928L -2.04695 32.8065ZM 37.4996 0L 39.5466 -2.19317C 38.394 -3.26894 36.6053 -3.26894 35.4527 -2.19317L 37.4996 0ZM 72.9523 37.1928C 74.1636 38.3233 76.062 38.2579 77.1925 37.0466C 78.323 35.8354 78.2575 33.937 77.0462 32.8065L 72.9523 37.1928ZM 2.04695 37.1928L 39.5466 2.19317L 35.4527 -2.19317L -2.04695 32.8065L 2.04695 37.1928ZM 35.4527 2.19317L 72.9523 37.1928L 77.0462 32.8065L 39.5466 -2.19317L 35.4527 2.19317Z"/>
</defs>
</svg>
