<svg width="80" height="80" viewBox="0 0 80 80" version="1.1" xmlns="http://www.w3.org/2000/svg" xmlns:xlink="http://www.w3.org/1999/xlink">
<title>hourglass</title>
<desc>Created using Figma</desc>
<g id="Canvas" transform="translate(-443 -86)">
<g id="hourglass">
<g id="Group">
<g id="Vector">
<use xlink:href="#path0_fill" transform="translate(443 86)" fill="#29339B"/>
</g>
<g id="Vector">
<use xlink:href="#path1_fill" transform="translate(463.8 103.333)" fill="#29339B"/>
</g>
<g id="Vector">
<use xlink:href="#path2_fill" transform="translate(489.399 136.666)" fill="#29339B"/>
</g>
</g>
</g>
</g>
<defs>
<path id="path0_fill" d="M 78.4 77.3333L 73.6 77.3333L 73.6 72L 65.6 72L 65.6 58.3707C 65.6 54.7707 63.4528 51.4267 59.8576 49.4293L 42.8848 40L 59.8576 30.5707C 63.4528 28.5733 65.6 25.2293 65.6 21.6293L 65.6 8L 73.6 8L 73.6 2.66667L 78.4 2.66667C 79.2832 2.66667 80 2.07067 80 1.33333C 80 0.596 79.2832 0 78.4 0L 73.6 0L 72 0L 8 0L 6.4 0L 1.6 0C 0.7168 0 0 0.596 0 1.33333C 0 2.07067 0.7168 2.66667 1.6 2.66667L 6.4 2.66667L 6.4 8L 14.4 8L 14.4 21.6293C 14.4 25.2293 16.5472 28.5733 20.1424 30.5707L 37.1152 40L 20.1424 49.4293C 16.5472 51.4267 14.4 54.7707 14.4 58.3707L 14.4 72L 6.4 72L 6.4 77.3333L 1.6 77.3333C 0.7168 77.3333 0 77.9293 0 78.6667C 0 79.404 0.7168 80 1.6 80L 6.4 80L 8 80L 72 80L 73.6 80L 78.4 80C 79.2832 80 80 79.404 80 78.6667C 80 77.9293 79.2832 77.3333 78.4 77.3333ZM 9.6 5.33333L 9.6 2.66667L 70.4 2.66667L 70.4 5.33333L 65.6 5.33333L 14.4 5.33333L 9.6 5.33333ZM 21.9168 28.352C 19.2144 26.8493 17.6 24.336 17.6 21.6293L 17.6 8L 62.4 8L 62.4 21.6293C 62.4 24.336 60.7856 26.8493 58.0832 28.352L 40 38.3973L 21.9168 28.352ZM 17.6 58.3707C 17.6 55.664 19.2144 53.1507 21.9168 51.648L 40 41.6027L 58.0832 51.648C 60.7856 53.1507 62.4 55.664 62.4 58.3707L 62.4 72L 17.6 72L 17.6 58.3707ZM 9.6 74.6667L 14.4 74.6667L 65.6 74.6667L 70.4 74.6667L 70.4 77.3333L 9.6 77.3333L 9.6 74.6667Z"/>
<path id="path1_fill" d="M 4.6672 6.58133C 3.7488 6.07067 3.2 5.216 3.2 4.296L 3.2 1.33333C 3.2 0.596 2.4832 0 1.6 0C 0.7168 0 0 0.596 0 1.33333L 0 4.296C 0 6.11067 1.0816 7.79467 2.8928 8.8L 10.3136 12.9227C 10.5856 13.0733 10.8944 13.1467 11.2 13.1467C 11.7168 13.1467 12.224 12.9387 12.5328 12.5533C 13.0224 11.94 12.824 11.1133 12.0896 10.704L 4.6672 6.58133Z"/>
<path id="path2_fill" d="M 9.9086 4.34743L 2.4878 0.224762C 1.7518 -0.184571 0.759795 -0.0192371 0.268595 0.594096C -0.221005 1.20743 -0.022604 2.0341 0.711796 2.44343L 8.1326 6.5661C 9.0526 7.07676 9.6014 7.9301 9.6014 8.85143L 9.6014 11.8141C 9.6014 12.5514 10.3182 13.1474 11.2014 13.1474C 12.0846 13.1474 12.8014 12.5514 12.8014 11.8141L 12.8014 8.85143C 12.8014 7.03543 11.7198 5.35276 9.9086 4.34743Z"/>
</defs>
</svg>
