<svg width="57" height="60" viewBox="0 0 57 60" version="1.1" xmlns="http://www.w3.org/2000/svg" xmlns:xlink="http://www.w3.org/1999/xlink">
<title>Group</title>
<desc>Created using Figma</desc>
<g id="Canvas" transform="translate(97 1091)">
<g id="Group">
<g id="pineapple-black-silhouette">
<g id="Vector">
<use xlink:href="#path0_fill" transform="translate(-77.6214 -1077.95)" fill="#FCA311"/>
</g>
<g id="Vector">
<use xlink:href="#path1_fill" transform="translate(-66.2971 -1076.61)" fill="#FCA311"/>
</g>
<g id="Vector">
<use xlink:href="#path2_fill" transform="translate(-77.6145 -1076.64)" fill="#FCA311"/>
</g>
<g id="Vector">
<use xlink:href="#path3_fill" transform="translate(-71.9287 -1083)" fill="#FCA311"/>
</g>
<g id="Vector">
<use xlink:href="#path4_fill" transform="matrix(0.707107 -0.707107 0.707107 0.707107 -71.9365 -1049.9)" fill="#FCA311"/>
</g>
<g id="Vector">
<use xlink:href="#path5_fill" transform="matrix(0.707107 -0.707107 0.707107 0.707107 -71.938 -1057.06)" fill="#FCA311"/>
</g>
<g id="Vector">
<use xlink:href="#path6_fill" transform="matrix(0.707107 -0.707107 0.707107 0.707107 -75.5162 -1053.48)" fill="#FCA311"/>
</g>
<g id="Vector">
<use xlink:href="#path7_fill" transform="matrix(0.707107 -0.707107 0.707107 0.707107 -79.0911 -1057.06)" fill="#FCA311"/>
</g>
<g id="Vector">
<use xlink:href="#path8_fill" transform="matrix(0.707107 -0.707107 0.707107 0.707107 -68.3549 -1060.63)" fill="#FCA311"/>
</g>
<g id="Vector">
<use xlink:href="#path9_fill" transform="matrix(0.707107 -0.707107 0.707107 0.707107 -75.5129 -1060.63)" fill="#FCA311"/>
</g>
<g id="Vector">
<use xlink:href="#path10_fill" transform="matrix(0.707107 -0.707107 0.707107 0.707107 -68.3582 -1053.48)" fill="#FCA311"/>
</g>
<g id="Vector">
<use xlink:href="#path11_fill" transform="translate(-77.9024 -1045.46)" fill="#FCA311"/>
</g>
<g id="Vector">
<use xlink:href="#path12_fill" transform="matrix(0.707107 -0.707107 0.707107 0.707107 -64.78 -1057.06)" fill="#FCA311"/>
</g>
<g id="Vector">
<use xlink:href="#path13_fill" transform="translate(-64.8165 -1045.46)" fill="#FCA311"/>
</g>
<g id="Vector">
<use xlink:href="#path14_fill" transform="translate(-77.2375 -1065.23)" fill="#FCA311"/>
</g>
<g id="Vector">
<use xlink:href="#path15_fill" transform="translate(-61.2108 -1056.02)" fill="#FCA311"/>
</g>
<g id="Vector">
<use xlink:href="#path16_fill" transform="translate(-64.8096 -1065.23)" fill="#FCA311"/>
</g>
<g id="Vector">
<use xlink:href="#path17_fill" transform="matrix(0.707107 -0.707107 0.707107 0.707107 -71.9346 -1064.2)" fill="#FCA311"/>
</g>
<g id="Vector">
<use xlink:href="#path18_fill" transform="translate(-68.0451 -1067.47)" fill="#FCA311"/>
</g>
<g id="Vector">
<use xlink:href="#path19_fill" transform="translate(-79.5887 -1048.67)" fill="#FCA311"/>
</g>
<g id="Vector">
<use xlink:href="#path20_fill" transform="translate(-73.7141 -1067.47)" fill="#FCA311"/>
</g>
<g id="Vector">
<use xlink:href="#path21_fill" transform="translate(-79.0677 -1061.32)" fill="#FCA311"/>
</g>
<g id="Vector">
<use xlink:href="#path22_fill" transform="translate(-74.2419 -1041.88)" fill="#FCA311"/>
</g>
<g id="Vector">
<use xlink:href="#path23_fill" transform="translate(-61.204 -1048.65)" fill="#FCA311"/>
</g>
<g id="Vector">
<use xlink:href="#path24_fill" transform="translate(-80 -1056.02)" fill="#FCA311"/>
</g>
<g id="Vector">
<use xlink:href="#path25_fill" transform="translate(-68.1205 -1041.88)" fill="#FCA311"/>
</g>
<g id="Vector">
<use xlink:href="#path12_fill" transform="matrix(0.707107 -0.707107 0.707107 0.707107 -75.5147 -1046.32)" fill="#FCA311"/>
</g>
<g id="Vector">
<use xlink:href="#path26_fill" transform="matrix(0.707107 -0.707107 0.707107 0.707107 -71.9398 -1042.75)" fill="#FCA311"/>
</g>
<g id="Vector">
<use xlink:href="#path27_fill" transform="translate(-61.204 -1061.29)" fill="#FCA311"/>
</g>
<g id="Vector">
<use xlink:href="#path28_fill" transform="matrix(0.707107 -0.707107 0.707107 0.707107 -79.0827 -1049.9)" fill="#FCA311"/>
</g>
<g id="Vector">
<use xlink:href="#path7_fill" transform="matrix(0.707107 -0.707107 0.707107 0.707107 -68.3567 -1046.33)" fill="#FCA311"/>
</g>
<g id="Vector">
<use xlink:href="#path29_fill" transform="matrix(0.707107 -0.707107 0.707107 0.707107 -64.7785 -1049.9)" fill="#FCA311"/>
</g>
</g>
<g id="Rectangle 9">
<mask id="mask0_outline_ins">
<use xlink:href="#path30_fill" fill="white" transform="translate(-97 -1091)"/>
</mask>
<g mask="url(#mask0_outline_ins)">
<use xlink:href="#path31_stroke_2x" transform="translate(-97 -1091)" fill="#333333"/>
</g>
</g>
</g>
</g>
<defs>
<path id="path0_fill" d="M 4.36655 10.5565C 5.60987 9.90768 6.99491 9.57791 8.39721 9.59681C 9.7985 9.58212 11.1814 9.91665 12.421 10.5702C 13.6868 9.06953 15.1593 7.75627 16.7944 6.66978C 16.4972 6.28893 16.1148 5.9832 15.6778 5.77722C 15.2408 5.57124 14.7616 5.47077 14.2787 5.48389C 13.5517 5.47407 12.8354 5.65976 12.2047 6.02152C 11.574 6.38329 11.0521 6.90785 10.6936 7.54035C 11.2112 6.20992 11.2684 4.74445 10.8559 3.37775C 10.4434 2.01105 9.58504 0.821889 8.41778 0C 7.25171 0.822843 6.39473 2.01243 5.9835 3.37906C 5.57227 4.74568 5.63047 6.21065 6.14882 7.54035C 5.78637 6.90059 5.2569 6.37132 4.617 6.00911C 3.9771 5.6469 3.2508 5.46536 2.51574 5.48389C 2.03168 5.47237 1.55171 5.57496 1.11466 5.78337C 0.677611 5.99177 0.295759 6.30013 -2.09194e-07 6.68349C 1.63084 7.76217 3.10091 9.06608 4.36655 10.5565Z"/>
<path id="path1_fill" d="M 0.452421 4.22314C 1.2646 3.72225 2.2064 3.4719 3.16009 3.50337C 3.88763 2.75161 4.66391 2.04861 5.48389 1.39893C 4.05123 -0.753497 1.37097 -0.170833 1.04597e-07 1.45377C 0.346914 2.33397 0.501184 3.27829 0.452421 4.22314Z"/>
<path id="path2_fill" d="M 2.33065 3.52394C 3.2843 3.49287 4.22599 3.74319 5.03833 4.2437C 4.98442 3.2925 5.1364 2.34086 5.48389 1.45377C 4.11292 -0.170833 1.4121 -0.753497 -5.22985e-08 1.39893C 0.823016 2.05495 1.60161 2.76485 2.33065 3.52394Z"/>
<path id="path3_fill" d="M 2.70458 4.29114C 3.82356 5.06915 4.74592 6.09713 5.39855 7.29358C 5.58988 5.95883 5.44566 4.59744 4.9789 3.33241C 4.51215 2.06739 3.73757 0.938581 2.72515 0.0479841L 2.72515 -9.15223e-08L 2.72515 0.0479841C 1.71889 0.94212 0.950823 2.0725 0.490123 3.33733C 0.0294232 4.60216 -0.109444 5.96172 0.086026 7.29358C 0.717324 6.10536 1.61323 5.07812 2.70458 4.29114Z"/>
<path id="path4_fill" d="M 3.83187 0L 0 0L 0 3.83187L 3.83187 3.83187L 3.83187 0Z"/>
<path id="path5_fill" d="M 3.83187 0L 0 0L 0 3.83187L 3.83187 3.83187L 3.83187 0Z"/>
<path id="path6_fill" d="M 3.83187 0L 0 0L 0 3.83187L 3.83187 3.83187L 3.83187 0Z"/>
<path id="path7_fill" d="M 3.83187 0L 0 0L 0 3.83187L 3.83187 3.83187L 3.83187 0Z"/>
<path id="path8_fill" d="M 3.83187 0L 0 0L 0 3.83187L 3.83187 3.83187L 3.83187 0Z"/>
<path id="path9_fill" d="M 3.83187 0L 0 0L 0 3.83187L 3.83187 3.83187L 3.83187 0Z"/>
<path id="path10_fill" d="M 3.83187 0L 0 0L 0 3.83187L 3.83187 3.83187L 3.83187 0Z"/>
<path id="path11_fill" d="M 1.52178 -1.04597e-07L -1.04597e-07 1.52178C 0.646999 2.64259 1.52571 3.61243 2.57743 4.36655L 4.23631 2.70767L 1.52178 -1.04597e-07Z"/>
<path id="path12_fill" d="M 3.83187 0L 0 0L 0 3.83187L 3.83187 3.83187L 3.83187 0Z"/>
<path id="path13_fill" d="M 2.74195 -1.04597e-07L 0 2.74195L 1.71372 4.36655C 2.76544 3.61243 3.64415 2.64259 4.29114 1.52178L 2.74195 -1.04597e-07Z"/>
<path id="path14_fill" d="M 0.856858 3.72905L 3.5988 0.987101L 2.55001 -3.66089e-07C 1.57786 0.841558 0.720516 1.80722 7.84477e-08 2.87219L 0.856858 3.72905Z"/>
<path id="path15_fill" d="M 2.64598 5.18228C 2.72138 4.32542 2.76251 3.44114 2.76251 2.5363C 2.75982 1.68625 2.68645 0.837892 2.54316 4.87068e-15L -1.15057e-06 2.54316L 2.64598 5.18228Z"/>
<path id="path16_fill" d="M 2.73509 3.72905L 3.59195 2.87219C 2.86509 1.80595 2.00078 0.840222 1.02138 -3.66089e-07L 1.56895e-07 1.02137L 2.73509 3.72905Z"/>
<path id="path17_fill" d="M 3.83187 0L 0 0L 0 3.83187L 3.83187 3.83187L 3.83187 0Z"/>
<path id="path18_fill" d="M 2.3992 2.3992L 3.3109 1.48751C 2.321 0.769778 1.194 0.263443 6.27582e-07 6.27582e-07L 2.3992 2.3992Z"/>
<path id="path19_fill" d="M 2.34436 2.34436L -1.30746e-07 8.36775e-07C 0.217747 1.24559 0.583653 2.46067 1.08992 3.61937L 2.34436 2.34436Z"/>
<path id="path20_fill" d="M 0.911697 2.3992L 3.3109 6.27582e-07C 2.1169 0.263443 0.989897 0.769778 3.13791e-07 1.48751L 0.911697 2.3992Z"/>
<path id="path21_fill" d="M 1.82339 0.685486L 1.13791 3.13791e-07C 0.690617 0.784739 0.309979 1.60563 2.61492e-08 2.45404L 1.82339 0.685486Z"/>
<path id="path22_fill" d="M 1.43952 1.88275e-06L 0 1.43952C 1.22423 2.03783 2.55417 2.38953 3.91413 2.47461L 1.43952 1.88275e-06Z"/>
<path id="path23_fill" d="M 3.13791e-07 2.3238L 1.24759 3.5988C 1.75459 2.44694 2.12277 1.23885 2.34436 -4.87068e-15L 3.13791e-07 2.3238Z"/>
<path id="path24_fill" d="M 0.116533 5.18228L 2.75566 2.54316L 0.212501 0C 0.0715059 0.838084 0.000427583 1.68644 -6.53731e-08 2.5363C -6.53731e-08 3.42743 0.0411292 4.32542 0.116533 5.18228Z"/>
<path id="path25_fill" d="M 2.47461 1.88275e-06L 2.09194e-07 2.47461C 1.35998 2.38971 2.68996 2.038 3.91413 1.43952L 2.47461 1.88275e-06Z"/>
<path id="path26_fill" d="M 3.83187 0L 0 0L 0 3.83187L 3.83187 3.83187L 3.83187 0Z"/>
<path id="path27_fill" d="M 3.13791e-07 0.658067L 1.79598 2.45404C 1.48609 1.6056 1.10544 0.784695 0.658067 9.41372e-07L 3.13791e-07 0.658067Z"/>
<path id="path28_fill" d="M 3.83187 0L 0 0L 0 3.83187L 3.83187 3.83187L 3.83187 0Z"/>
<path id="path29_fill" d="M 3.83187 0L 0 0L 0 3.83187L 3.83187 3.83187L 3.83187 0Z"/>
<path id="path30_fill" d="M 0 0L 56.087 0L 56.087 60L 0 60L 0 0Z"/>
<path id="path31_stroke_2x" d="M 0 0L 0 -2L -2 -2L -2 0L 0 0ZM 56.087 0L 58.087 0L 58.087 -2L 56.087 -2L 56.087 0ZM 56.087 60L 56.087 62L 58.087 62L 58.087 60L 56.087 60ZM 0 60L -2 60L -2 62L 0 62L 0 60ZM 0 2L 56.087 2L 56.087 -2L 0 -2L 0 2ZM 54.087 0L 54.087 60L 58.087 60L 58.087 0L 54.087 0ZM 56.087 58L 0 58L 0 62L 56.087 62L 56.087 58ZM 2 60L 2 0L -2 0L -2 60L 2 60Z"/>
</defs>
</svg>
