<svg width="80" height="80" viewBox="0 0 80 80" version="1.1" xmlns="http://www.w3.org/2000/svg" xmlns:xlink="http://www.w3.org/1999/xlink">
<title>question</title>
<desc>Created using Figma</desc>
<g id="Canvas" transform="translate(-20 -86)">
<g id="question">
<g id="Group">
<g id="Group">
<g id="Vector">
<use xlink:href="#path0_fill" transform="translate(20 86)" fill="#29339B"/>
</g>
</g>
</g>
<g id="Group">
<g id="Group">
<g id="Vector">
<use xlink:href="#path1_fill" transform="translate(35.4713 91.41)" fill="#29339B"/>
</g>
</g>
</g>
<g id="Group">
<g id="Group">
<g id="Vector">
<use xlink:href="#path2_fill" transform="translate(71.5181 123.281)" fill="#29339B"/>
</g>
</g>
</g>
<g id="Group">
<g id="Group">
<g id="Vector">
<use xlink:href="#path3_fill" transform="translate(71.5165 143.287)" fill="#29339B"/>
</g>
</g>
</g>
<g id="Group">
<g id="Group">
<g id="Vector">
<use xlink:href="#path4_fill" transform="translate(40.6673 111.567)" fill="#29339B"/>
</g>
</g>
</g>
</g>
</g>
<defs>
<path id="path0_fill" d="M 70.8917 27.9656L 45.0799 27.9656C 45.1688 27.439 45.2157 26.9017 45.2157 26.3545L 45.2157 8.66947C 45.2157 3.88896 41.7287 7.17961e-08 37.4426 7.17961e-08L 7.77139 7.17961e-08C 3.48609 7.17961e-08 0 3.88896 0 8.66947L 0 26.3545C 0 31.1338 3.48609 35.0219 7.77139 35.0219L 12.3372 35.0219L 12.0908 41.4241C 12.0686 42.0018 12.3372 42.545 12.7872 42.832C 13.0008 42.9683 13.2381 43.0361 13.4754 43.0361C 13.7378 43.0361 13.9998 42.953 14.2284 42.7879L 24.9871 35.0217L 26.3503 35.0217C 26.0687 35.9995 25.915 37.0406 25.915 38.1212L 25.915 59.4997C 25.915 65.0996 29.9998 69.6556 35.0209 69.6556L 38.9549 69.6556L 47.629 79.5358C 47.8941 79.8379 48.2529 80 48.6191 80C 48.773 80 48.9282 79.9714 49.0785 79.9123C 49.5863 79.7133 49.9447 79.2043 49.9979 78.6069L 50.7943 69.6556L 70.8919 69.6556C 75.9142 69.6556 80 65.0996 80 59.4997L 80 38.1214C 79.9998 32.5213 75.9139 27.9656 70.8917 27.9656ZM 27.8093 31.9307L 24.5776 31.9307C 24.3104 31.9307 24.049 32.0168 23.8246 32.1789L 14.9748 38.5672L 15.1683 33.5427C 15.1845 33.1217 15.0458 32.7116 14.7845 32.4072C 14.5231 32.1027 14.1617 31.9307 13.7839 31.9307L 7.77155 31.9307C 5.01452 31.9307 2.7714 29.4293 2.7714 26.3545L 2.7714 8.66947C 2.7714 5.59347 5.01452 3.09116 7.77139 3.09116L 37.4429 3.09116C 40.2009 3.09116 42.4444 5.59364 42.4444 8.66947L 42.4444 26.3545C 42.4444 26.9081 42.3727 27.4472 42.232 27.9656L 35.0207 27.9656C 32.0878 27.9656 29.476 29.5216 27.8093 31.9307ZM 77.2286 59.4997C 77.2286 63.3953 74.386 66.5647 70.8919 66.5647L 49.539 66.5647C 48.8266 66.5647 48.2302 67.1669 48.1599 67.9578L 47.5329 75.0085L 40.5276 67.0291C 40.2671 66.7321 39.9101 66.5648 39.5376 66.5648L 35.021 66.5648C 31.5282 66.5648 28.6865 63.3954 28.6865 59.4999L 28.6865 38.1214C 28.6865 34.2258 31.5282 31.0566 35.021 31.0566L 70.8921 31.0566L 70.8921 31.0564C 74.3861 31.0564 77.2288 34.2256 77.2288 38.1212L 77.2288 59.4997L 77.2286 59.4997Z"/>
<path id="path1_fill" d="M 13.4737 6.31615C 13.2635 2.9331 10.5538 0.22341 7.17076 0.0134172C 5.28745 -0.102994 3.49616 0.5411 2.12589 1.82894C 0.77462 3.09883 6.07292e-07 4.89012 6.07292e-07 6.74346C -0.00017366 7.59737 0.691494 8.28921 1.54541 8.28921C 2.39932 8.28921 3.09099 7.5972 3.09099 6.74363C 3.09099 5.72486 3.49999 4.77964 4.24272 4.08135C 4.98475 3.38393 5.95682 3.03487 6.97907 3.0983C 8.77908 3.21001 10.2766 4.70749 10.3884 6.50733C 10.4728 7.86696 9.80534 9.15219 8.64629 9.8618C 6.48694 11.1836 5.19771 13.4679 5.19771 15.9725C 5.19771 16.8261 5.88955 17.5181 6.74329 17.5181C 7.59702 17.5181 8.28887 16.8261 8.28887 15.9725C 8.28887 14.5524 9.02584 13.2537 10.2602 12.4981C 12.3976 11.1899 13.6291 8.8209 13.4737 6.31615Z"/>
<path id="path2_fill" d="M 1.54558 -1.06365e-06C 0.69184 -1.06365e-06 -4.25458e-08 0.692016 -4.25458e-08 1.54558L -4.25458e-08 14.6266C -4.25458e-08 15.4802 0.692015 16.1722 1.54558 16.1722C 2.39931 16.1722 3.09116 15.4802 3.09116 14.6266L 3.09116 1.54558C 3.09099 0.692016 2.39931 -1.06365e-06 1.54558 -1.06365e-06Z"/>
<path id="path3_fill" d="M 1.54558 3.09116C 2.39918 3.09116 3.09116 2.39918 3.09116 1.54558C 3.09116 0.691978 2.39918 0 1.54558 0C 0.691977 0 0 0.691978 0 1.54558C 0 2.39918 0.691977 3.09116 1.54558 3.09116Z"/>
<path id="path4_fill" d="M 1.54558 3.09116C 2.39918 3.09116 3.09116 2.39918 3.09116 1.54558C 3.09116 0.69198 2.39918 0 1.54558 0C 0.69198 0 0 0.69198 0 1.54558C 0 2.39918 0.69198 3.09116 1.54558 3.09116Z"/>
</defs>
</svg>
