<?xml version="1.0" encoding="iso-8859-1"?>
<!-- Generator: Adobe Illustrator 19.0.0, SVG Export Plug-In . SVG Version: 6.00 Build 0)  -->
<svg version="1.1" id="Capa_1" xmlns="http://www.w3.org/2000/svg" xmlns:xlink="http://www.w3.org/1999/xlink" x="0px" y="0px"
	 viewBox="0 0 409.6 409.6" style="enable-background:new 0 0 409.6 409.6;" xml:space="preserve">
<path style="fill:#E56353;" d="M325.999,370.711c10.819-7.995,11.073-28.599,2.698-39.126l-24.962-26.167
	c-24.043-24.696-41.685-44.77-83.318-14.942c-11.865,8.501-26.002,35.761-57.821,8.102c-26.377-22.928-79.128-85.126-73.659-118.816
	c3.071-18.922,21.313-27.025,31.213-32.34c34.636-18.595,24.755-52.653,6.094-81.631c0,0-15.468-24.273-21.096-32.038
	c-7.895-10.892-21.181-10.37-34.226-3.896c0,0-56.995,27.646-68.676,92.724c-8.383,46.705,5.18,87.977,66.684,177.707
	c30.357,44.289,90.765,112.595,186.216,107.019C275.51,406.119,282.977,402.505,325.999,370.711z"/>
<g>
	<path style="fill:#CE412D;" d="M291.362,391.766l-73.472-99.254c4.871-4.613,14.704-9.735,14.704-9.735l78.585,98.773
		c0,0-12.32,8.915-18.041,12.449L291.362,391.766z"/>
	<path style="fill:#CE412D;" d="M51.382,42.688l78.261,98.364c0,0-1.019,2.003-23.025,14.028L31.966,61.253
		C31.966,61.253,46.169,45.262,51.382,42.688z"/>
</g>
<path style="fill:#44C4A1;" d="M394.24,1.97H198.103c-8.483,0-15.36,6.877-15.36,15.36v77.982c0,8.483,6.877,15.36,15.36,15.36
	h24.812l-23.631,46.474l66.954-46.474H394.24c8.483,0,15.36-6.877,15.36-15.36V17.33C409.6,8.847,402.723,1.97,394.24,1.97z"/>
<g>
	<rect x="208.737" y="14.572" style="fill:#31978C;" width="174.848" height="20.086"/>
	<rect x="208.737" y="46.285" style="fill:#31978C;" width="174.848" height="20.086"/>
	<rect x="208.737" y="78.131" style="fill:#31978C;" width="174.848" height="20.086"/>
</g>
<g>
</g>
<g>
</g>
<g>
</g>
<g>
</g>
<g>
</g>
<g>
</g>
<g>
</g>
<g>
</g>
<g>
</g>
<g>
</g>
<g>
</g>
<g>
</g>
<g>
</g>
<g>
</g>
<g>
</g>
</svg>
