<svg width="80" height="80" viewBox="0 0 80 80" version="1.1" xmlns="http://www.w3.org/2000/svg" xmlns:xlink="http://www.w3.org/1999/xlink">
<title>support</title>
<desc>Created using Figma</desc>
<g id="Canvas" transform="translate(-856 -86)">
<g id="support">
<g id="Group">
<g id="Group">
<g id="Group">
<g id="Vector">
<use xlink:href="#path0_fill" transform="translate(872.698 138.235)" fill="#29339B"/>
</g>
<g id="Vector">
<use xlink:href="#path1_fill" transform="translate(906.258 102.387)" fill="#29339B"/>
</g>
<g id="Vector">
<use xlink:href="#path2_fill" transform="translate(856 86)" fill="#29339B"/>
</g>
<g id="Vector">
<use xlink:href="#path3_fill" transform="translate(879.14 155.756)" fill="#29339B"/>
</g>
<g id="Vector">
<use xlink:href="#path4_fill" transform="translate(909.754 152.182)" fill="#29339B"/>
</g>
</g>
</g>
</g>
</g>
</g>
<defs>
<path id="path0_fill" d="M 3.37927 0.39367C 2.6763 -0.20039 1.6249 -0.11211 1.03037 0.590856C 0.800997 0.862417 0.573968 1.14086 0.355843 1.41882C -0.212592 2.14288 -0.0864996 3.19054 0.63756 3.75882C 0.942715 3.99866 1.30553 4.11459 1.66553 4.11459C 2.15974 4.11459 2.64865 3.89569 2.97755 3.4771C 3.17099 3.23054 3.37255 2.9835 3.57614 2.74257C 4.17036 2.03944 4.08223 0.987886 3.37927 0.39367Z"/>
<path id="path1_fill" d="M 0.569876 3.58029C 0.885969 3.85669 1.27675 3.99216 1.66612 3.99216C 2.13034 3.99216 2.59237 3.79935 2.92158 3.42232C 3.15112 3.15982 3.3608 2.89701 3.54502 2.64091C 4.08283 1.89404 3.91361 0.852483 3.16674 0.314361C 2.41956 -0.223606 1.37799 -0.0540759 0.840185 0.69264C 0.716748 0.864202 0.572372 1.04436 0.411748 1.22842C -0.194031 1.92185 -0.12309 2.97466 0.569876 3.58029Z"/>
<path id="path2_fill" d="M 78.3328 69.9989L 75.7931 69.9989C 75.51 63.8669 73.6681 57.9259 70.4216 52.7228C 67.2624 47.6597 62.8949 43.4717 57.7312 40.5262C 57.9456 39.9634 58.1465 39.3372 58.3391 38.6339L 61.7751 38.6339C 64.9012 38.6339 67.4443 36.0906 67.4443 32.9646L 67.4443 27.7125C 67.4443 24.5866 64.9012 22.0434 61.7751 22.0434L 61.1837 22.0434C 61.3284 19.7796 61.2487 17.5988 60.7251 15.8467C 59.2798 11.0076 56.5373 6.96982 52.7935 4.16967C 49.1468 1.44203 44.7226 0.000156249 39.9997 0C 35.2769 0 30.8527 1.44187 27.2055 4.16998C 23.4623 6.97013 20.7193 11.0076 19.2737 15.8468C 18.7502 17.599 18.6707 19.7798 18.8154 22.0437L 18.2245 22.0437C 15.0984 22.0437 12.5553 24.5868 12.5553 27.7129L 12.5553 32.9649C 12.5553 36.091 15.0984 38.6342 18.2245 38.6342L 21.6601 38.6342C 21.8527 39.3377 22.0538 39.9637 22.2679 40.5266C 17.1045 43.4719 12.7368 47.6598 9.57762 52.7232C 6.33107 57.9266 4.48951 63.8673 4.20608 69.9993L 1.66671 69.9993C 0.746247 69.9993 1.48428e-11 70.7457 1.48428e-11 71.666C 1.48428e-11 72.5863 0.746247 73.3327 1.66671 73.3327L 5.83341 73.3327L 16.7598 73.3327L 18.4035 78.8119C 18.6151 79.5167 19.2638 79.9995 19.9999 79.9995L 52.8007 79.9995C 52.8034 79.9995 52.8057 80 52.8082 80C 52.8121 80 52.816 79.9995 52.8199 79.9995L 59.9995 79.9995C 60.7354 79.9995 61.3844 79.5167 61.5959 78.8119L 63.2396 73.3327L 74.1661 73.3327L 78.3328 73.3327C 79.2533 73.3327 79.9995 72.5863 79.9995 71.666C 79.9995 70.7453 79.2534 69.9989 78.3328 69.9989ZM 59.4945 33.0192C 59.582 32.4874 59.714 31.7996 59.8666 31.003C 60.1818 29.3605 60.5571 27.4029 60.8371 25.3769L 61.7752 25.3769L 61.7752 25.3768C 63.0632 25.3768 64.111 26.4246 64.111 27.7125L 64.111 32.9646C 64.111 34.2527 63.0632 35.3006 61.7752 35.3006L 59.0916 35.3006C 59.226 34.5966 59.3595 33.8391 59.4945 33.0192ZM 18.2245 35.3005L 18.2245 35.3006C 16.9365 35.3006 15.8887 34.2528 15.8887 32.9646L 15.8887 27.7125C 15.8887 26.4246 16.9365 25.3768 18.2245 25.3768L 19.1623 25.3768C 19.4423 27.4016 19.8174 29.3588 20.1323 31.0005C 20.2851 31.7978 20.4173 32.4864 20.5048 33.0189C 20.6398 33.8389 20.7734 34.5964 20.9076 35.3005L 18.2245 35.3005ZM 22.1432 21.8377C 22.0171 19.9237 22.0698 18.1327 22.4677 16.8009C 24.9494 8.49387 31.6671 3.33327 39.9995 3.33327C 48.3326 3.33358 55.0504 8.49419 57.5312 16.801C 58.0302 18.471 57.9873 20.8615 57.7287 23.3127C 57.6973 23.4404 57.679 23.573 57.679 23.7102C 57.679 23.7223 57.6807 23.7341 57.6809 23.7458C 57.4052 26.138 56.9429 28.5507 56.5931 30.3749C 56.4359 31.1944 56.3001 31.9022 56.2054 32.4775C 55.9731 33.8888 55.7551 35.0799 55.5359 36.0981C 53.0776 38.3324 48.8937 39.8617 44.6459 40.2241C 44.5254 39.4219 43.8354 38.8063 42.9997 38.8063L 39.9995 38.8063C 39.0792 38.8063 38.3328 39.5527 38.3328 40.473L 38.3328 41.8062C 38.3328 41.8242 38.335 41.8417 38.3356 41.8594C 38.3366 41.8927 38.3377 41.9261 38.3405 41.9591C 38.3427 41.9822 38.3461 42.0047 38.3494 42.0276C 38.3536 42.0594 38.3578 42.0909 38.3638 42.122C 38.3686 42.1469 38.3747 42.1714 38.3808 42.1959C 38.3877 42.2237 38.3941 42.2516 38.4024 42.2791C 38.4102 42.3058 38.4194 42.3316 38.4288 42.3576C 38.4372 42.382 38.4456 42.4067 38.4555 42.4306C 38.4661 42.4576 38.4786 42.4837 38.4909 42.5103C 38.5014 42.5325 38.5114 42.5548 38.5227 42.5762C 38.5361 42.602 38.5511 42.6273 38.5659 42.6523C 38.5784 42.6733 38.5906 42.6945 38.6039 42.715C 38.6195 42.7386 38.6361 42.7616 38.6528 42.7844C 38.6678 42.805 38.6828 42.8256 38.6986 42.8458C 38.7153 42.8666 38.7328 42.8864 38.7505 42.9062C 38.7684 42.9267 38.7866 42.9472 38.8056 42.9669C 38.8228 42.9847 38.8409 43.0016 38.8589 43.0186C 38.88 43.0386 38.9013 43.0584 38.9234 43.0772C 38.9414 43.0925 38.9605 43.1069 38.9789 43.1216C 39.0028 43.1398 39.0263 43.1583 39.0509 43.1753C 39.0705 43.1887 39.0906 43.2012 39.1108 43.2139C 39.1358 43.2298 39.1609 43.2458 39.1869 43.26C 39.2089 43.2723 39.2316 43.2836 39.2542 43.2948C 39.2792 43.3075 39.3044 43.3201 39.3303 43.3317C 39.3559 43.3428 39.3825 43.3528 39.4092 43.3631C 39.4331 43.3722 39.4567 43.3814 39.4814 43.3895C 39.5113 43.3994 39.5416 43.4072 39.572 43.4153C 39.5948 43.4212 39.6172 43.4276 39.6403 43.4328C 39.6722 43.4398 39.7048 43.4448 39.7373 43.4501C 39.7553 43.453 39.7725 43.4573 39.7905 43.4597C 39.8009 43.4609 39.8116 43.4619 39.8222 43.463C 39.8264 43.4634 39.8303 43.4639 39.8345 43.4645C 40.7839 43.5826 41.7522 43.6405 42.7273 43.6405C 46.4879 43.6405 50.3414 42.7894 53.5188 41.3106C 52.7248 42.3016 51.6926 42.9587 50.2073 43.9034C 49.587 44.298 48.8854 44.744 48.1047 45.2725C 45.4128 46.817 42.6859 47.5998 39.9989 47.5998C 37.3124 47.5998 34.586 46.8172 31.8949 45.2734C 31.1141 44.7451 30.4127 44.2989 29.7924 43.9042C 26.8333 42.0219 25.6707 41.2822 24.6132 36.7663C 24.5991 36.6502 24.5732 36.5378 24.5363 36.4299C 24.2924 35.3414 24.0519 34.0447 23.794 32.4775C 23.6993 31.9017 23.5633 31.193 23.406 30.3725C 23.1254 28.9082 22.7718 27.0641 22.5007 25.1562C 25.5607 24.729 32.1214 23.6212 36.5417 21.5005L 37.6363 24.1266C 37.7481 24.3952 37.8408 24.6315 37.9216 24.8374C 38.2899 25.7749 38.6377 26.6604 39.6797 27.0116C 39.9294 27.0958 40.1694 27.1332 40.4148 27.133C 40.9977 27.133 41.6125 26.923 42.4647 26.6321C 42.6989 26.5519 42.963 26.4618 43.2611 26.3635C 44.4169 25.9824 46.7365 24.8321 48.9337 23.3715C 49.7003 22.8618 49.9084 21.8273 49.3987 21.0609C 48.8889 20.2941 47.8543 20.0863 47.0881 20.5959C 45.0383 21.9587 43.0058 22.938 42.2164 23.1982C 41.9056 23.3008 41.6309 23.3948 41.3872 23.4779C 41.2656 23.5194 41.1394 23.5626 41.0178 23.6033C 40.9311 23.3829 40.8322 23.131 40.713 22.8451L 38.9027 18.5013C 38.7122 18.0443 38.3283 17.6956 37.8552 17.5496C 37.3816 17.4038 36.8683 17.476 36.4538 17.7465C 32.8486 20.0977 25.4543 21.3674 22.1432 21.8377ZM 60.4091 71.1678C 60.4087 71.1699 60.4082 71.1718 60.4074 71.1736L 58.7596 76.6658L 54.979 76.6658L 55.6729 74.0758C 55.9112 73.1866 55.3835 72.2728 54.4945 72.0346C 53.6048 71.7961 52.6914 72.3241 52.4532 73.213L 51.5282 76.6656L 21.2401 76.6656L 19.5957 71.1847C 19.5932 71.1764 19.591 71.1682 19.5884 71.16L 17.2398 63.3324L 20.9135 63.3324L 21.8385 66.7849C 22.038 67.5296 22.7113 68.0207 23.4474 68.0207C 23.5901 68.0207 23.7354 68.0022 23.8797 67.9633C 24.769 67.7252 25.2966 66.8113 25.0582 65.9221L 24.3643 63.3323L 62.7598 63.3323L 60.4091 71.1678ZM 64.2401 69.9989L 66.5965 62.1449C 66.7479 61.6402 66.6518 61.0935 66.3372 60.6709C 66.0226 60.2482 65.5269 59.9991 65.0001 59.9991L 14.9999 59.9991C 14.4731 59.9991 13.9773 60.2482 13.6628 60.6709C 13.3482 61.0935 13.2523 61.6401 13.4035 62.1449L 15.7599 69.9989L 7.542 69.9989C 8.10122 58.9051 14.2246 48.9531 23.8877 43.4386C 24.6094 44.3244 25.476 45.0295 26.5626 45.7737C 24.9382 46.6183 23.3885 47.6167 21.9555 48.7451C 21.2324 49.3148 21.1079 50.3626 21.6774 51.0857C 22.0065 51.5032 22.4946 51.7212 22.9879 51.7212C 23.3487 51.7212 23.7124 51.6045 24.018 51.3639C 25.3271 50.3329 26.7454 49.4232 28.2347 48.6598L 29.7782 47.8681C 29.8771 47.9342 29.9738 47.9981 30.0749 48.0665L 30.1771 48.1307C 33.3982 49.9901 36.7024 50.9331 39.9987 50.9331C 39.9989 50.9331 39.9989 50.9331 39.9991 50.9331C 43.2955 50.9331 46.6004 49.99 49.822 48.13L 49.924 48.0659C 50.6848 47.55 51.3814 47.1068 51.996 46.7161C 53.7937 45.5729 55.0962 44.6845 56.1112 43.4384C 65.7746 48.9531 71.8982 58.9051 72.4574 69.9988L 64.2401 69.9988L 64.2401 69.9989Z"/>
<path id="path3_fill" d="M 1.23543 0.0571712C 0.346213 0.295608 -0.18113 1.20966 0.0573066 2.09872L 0.251994 2.8245C 0.45168 3.56903 1.12496 4.05996 1.86089 4.05996C 2.00371 4.05996 2.14902 4.04153 2.29355 4.00262C 3.18276 3.76418 3.71011 2.85013 3.47167 1.96107L 3.27698 1.23529C 3.03855 0.346542 2.12558 -0.180953 1.23543 0.0571712Z"/>
<path id="path4_fill" d="M 1.23524 4.00251C 1.37977 4.04141 1.52508 4.06001 1.66805 4.06001C 2.40367 4.06001 3.07711 3.56923 3.2768 2.8247L 3.47149 2.09908C 3.71024 1.21017 3.18289 0.296117 2.29368 0.0575245C 1.40493 -0.181537 0.490873 0.346429 0.252124 1.23533L 0.0574366 1.96095C -0.181312 2.85001 0.346028 3.76407 1.23524 4.00251Z"/>
</defs>
</svg>
